<svg xmlns="http://www.w3.org/2000/svg" width="500" height="500" fill="none"><path fill="#000" fill-opacity=".15" fill-rule="evenodd" d="m358.293 385.855-48.985 2.542-.013-.202c3.8-9.525 13.434-16.432 23.675-16.965 10.24-.533 20.542 5.33 25.312 14.406l.011.219Zm-58.685 3.046c-9.21 23.93-18.862 47.795-39.467 63.055a61.723 61.723 0 0 1-2.083 1.479l.42.613c38.502 18.281 86.517 18.728 124.528-.554 26.534-13.465 49.089-36.506 57.509-65.046 8.421-28.541.731-62.357-22.229-81.293-14.978-12.355-34.543-17.53-53.698-20.696a312.972 312.972 0 0 0-62.986-4.301l-.229-.186v-.15l-.427-.005a129.19 129.19 0 0 0-15.775 23.509c-3.017-11.981-6.092-24.111-12.04-34.941l.005-.133c-3.203-.099-6.406-.203-9.609-.309l-.016.448a1954.05 1954.05 0 0 1 2.396 119.8l.026.463 33.675-1.753Zm1.977-53.476-.006.121c-.677 4.896-1.354 9.849-.911 14.774.443 4.924 2.095 9.896 5.521 13.463 3.426 3.567 8.821 5.452 13.511 3.885 2.936-.981 5.356-3.198 7.04-5.799 1.685-2.601 2.692-5.585 3.448-8.586a61.285 61.285 0 0 0 1.823-17.14l-.351.011-2.796-.068-2.715-.066c.149-1.779.277-3.571.384-5.356a6.607 6.607 0 0 0-.193-2.595 2.297 2.297 0 0 0-1.87-1.626c-1.269-.085-2.175 1.204-2.633 2.393a13.786 13.786 0 0 0-.815 6.63l-.011.427c-6.476-.154-12.951-.309-19.426-.468Zm89.388-37.055a.8.8 0 0 0-.564 1.496c19.806 7.46 35.63 24.777 41.282 45.174 5.653 20.397.996 43.389-12.147 59.979a.8.8 0 1 0 1.253.992c13.46-16.99 18.224-40.509 12.436-61.398-5.789-20.889-21.977-38.603-42.26-46.243Z" clip-rule="evenodd"/><path fill="#000" fill-opacity=".15" d="M326.148 336.022c1.833.043 3.671.091 5.511.134l.351-.011a61.281 61.281 0 0 1-1.823 17.14c-.757 3.001-1.764 5.985-3.448 8.586s-4.104 4.819-7.04 5.799c-4.688 1.567-10.084-.319-13.511-3.885-3.427-3.566-5.085-8.538-5.521-13.463-.437-4.925.234-9.876.911-14.774l.006-.122c6.475.154 12.951.31 19.427.468l5.137.128Z"/><path fill="#000" d="M321.021 335.468c-.276-2.244.003-4.52.815-6.63.458-1.189 1.364-2.478 2.633-2.393a2.31 2.31 0 0 1 1.87 1.626c.235.844.3 1.726.193 2.595a216.54 216.54 0 0 1-.384 5.356l-5.138-.127.011-.427Zm-20.073-53.653a129.26 129.26 0 0 0-15.775 23.509c-3.017-11.979-6.093-24.111-12.039-34.941l.005-.133c1.519.052 3.043.101 4.562.148l9.38.305c3.656.122 7.531.308 10.547 2.376 2.99 2.047 3.795 3.406 3.747 8.741l-.427-.005Zm-65.463 7.723c-3.374-2.985-7.504-5.293-11.979-5.757l-.064.017c-1.344-4.968 2.307-10.261 6.987-12.472 3.816-1.807 8.106-2.078 12.365-2.031 1.05.011 2.094.043 3.128.074 3.582.118 7.161.233 10.739.347l-.005.16c-5.148 9.487-8.778 19.714-12.386 29.895-2.693-3.614-5.406-7.254-8.785-10.233Z"/><path fill="#000" fill-opacity=".15" d="M218.041 418.606a5.241 5.241 0 0 0 2.521 3.762c1.711.912 3.885.533 5.543-.479 1.657-1.013 2.899-2.559 4.072-4.099 5.26-6.891 9.918-14.299 13.169-22.331.5-1.2.908-2.436 1.221-3.698.661-2.777.693-5.633-.896-7.909-1.979-2.825-5.729-3.672-9.14-4.157-9.439-1.338-19.139-1.563-28.437.527-9.299 2.091-18.917 7.307-25.297 14.39l.022.459 19.01-.986c-2.372 4.77-4.744 9.542-7.115 14.316-.778 1.571-1.572 3.177-1.812 4.913-.239 1.737.176 3.667 1.482 4.84 1.295 1.162 3.24 1.364 4.935.954 1.695-.411 3.209-1.36 4.687-2.292l.554.181a4.67 4.67 0 0 0-.17 2.458c.549 2.27 3.256 3.281 5.591 3.281a13.178 13.178 0 0 0 9.427-4.003l.633-.127Zm-123.819-7.414c-6.779-21.91-1.689-46.496 10.735-65.773 12.423-19.278 31.567-33.583 52.427-43.112 20.861-9.529 41.913-17.833 66.125-18.275-.021-.08-.047-.156-.069-.235l.064-.016c4.479.464 8.608 2.772 11.979 5.757 3.372 2.984 6.094 6.619 8.784 10.232 3.608-10.179 7.239-20.407 12.386-29.896l.005-.159c2.292.08 4.579.149 6.87.224l-.016.447a1958.765 1958.765 0 0 1 2.396 119.8l.026.464 33.673-1.748c-9.211 23.931-18.863 47.798-39.465 63.054a61.513 61.513 0 0 1-2.084 1.477c-14.768 10.121-33.006 14.246-50.898 15.77-22.821 1.945-46.41-.069-67.314-9.427-20.903-9.358-38.855-26.706-45.624-48.584Z"/><path stroke="#000" stroke-linecap="round" stroke-linejoin="round" d="M266.78 229.637c2.458-.416 4.913-.835 7.366-1.257-.352-9.524-.707-19.05-1.066-28.578-.075-1.979.016-4.296 1.631-5.431 1.034-.725 2.398-.719 3.667-.688 4.909.128 9.815.258 14.72.389m-9.406 12.155v-4.896m-24.208 3.774-.287-4.52m6.369 41.13a8.62 8.62 0 0 1-10.879-7.584 8.622 8.622 0 0 1 1.024-4.864"/><path stroke="#000" stroke-linecap="round" stroke-linejoin="round" d="m242.797 268.293.48-35.989c.128-9.391.254-18.782.378-28.173.08-6.161.534-13.137 5.255-17.092 3.305-2.76 7.877-3.288 12.168-3.613a324.662 324.662 0 0 1 39.775-.565l1.652.08"/><path stroke="#000" stroke-linecap="round" stroke-linejoin="round" d="M277.717 269.897c-1.434-4.567.26-9.588 2.936-13.558 2.676-3.97 6.263-7.222 9.237-10.969 6.63-8.362 9.955-18.952 11.181-29.552.048-.422.096-.837.134-1.258 1.034-10.191.312-20.482-.4-30.704m16.431-25.854a6.74 6.74 0 0 1 6.774-1.962c3.422 1.055 5.618 4.717 5.671 8.293.053 3.577-1.726 6.993-4.141 9.636-2.415 2.643-5.447 4.631-8.442 6.587 3.288-1.742 7.723-.293 9.792 2.798 2.068 3.091 1.887 7.376.037 10.601-1.849 3.224-5.171 5.449-8.726 6.54 4.424 4.05 4.427 11.949.011 16.01-4.416 4.062-12.813 2.857-16.485-1.887m15.509-56.617c-.341.99-.781 1.943-1.311 2.846a5.106 5.106 0 0 1 1.311-2.846Z"/><path stroke="#000" stroke-linecap="round" stroke-linejoin="round" d="M302.761 148.493a7.18 7.18 0 0 1 6.971-4.775c3.64.187 6.795 3.128 7.834 6.62a12.564 12.564 0 0 1-.33 7.664m-14.475-9.509a7.418 7.418 0 0 1-.26 1.765 5.284 5.284 0 0 1 .26-1.765Z"/><path stroke="#000" stroke-linecap="round" stroke-linejoin="round" d="M242.632 232.292c-3.241 5.223-11.213 6.704-16.117 3-4.904-3.704-5.655-11.784-1.514-16.33-5.457-1.657-7.85-8.57-6.406-14.092s5.633-9.849 9.833-13.707c-6.15-1.951-10.184-8.997-8.75-15.291 1.435-6.294 8.112-10.899 14.503-10.004-4.424-3.07-5-10.02-1.855-14.39 3.145-4.37 9.082-6.161 14.401-5.324 5.319.836 10.057 3.938 13.91 7.712-2.35-3.694-.501-9.05 3.224-11.336 3.725-2.287 8.64-1.909 12.573.01s7.035 5.17 9.823 8.542c-1.983-5.042 2.135-11.432 7.546-11.71 4.813-.24 9.093 4.419 8.959 9.119m-1.387 133.478v-.149c.048-5.335-.757-6.694-3.747-8.741-3.016-2.068-6.891-2.254-10.547-2.376l-9.381-.305c-1.518-.048-3.043-.095-4.562-.149-3.203-.101-6.406-.204-9.609-.309-2.292-.074-4.578-.144-6.87-.224-3.582-.111-7.161-.226-10.739-.346a152.753 152.753 0 0 0-3.129-.075c-4.258-.048-8.548.224-12.365 2.032-4.679 2.211-8.33 7.504-6.987 12.471.022.08.048.156.07.234-24.213.442-45.261 8.741-66.125 18.276-20.865 9.535-40.003 23.828-52.428 43.111-12.424 19.283-17.514 43.863-10.734 65.773 6.771 21.878 24.719 39.231 45.622 48.585 20.902 9.354 44.492 11.373 67.313 9.427 17.892-1.524 36.13-5.649 50.899-15.77.703-.475 1.396-.97 2.083-1.477 20.604-15.26 30.256-39.125 39.466-63.054"/><path stroke="#000" stroke-linecap="round" stroke-linejoin="round" d="M301.605 282.156a312.962 312.962 0 0 1 62.985 4.301c19.155 3.165 38.72 8.341 53.698 20.695 22.96 18.936 30.651 52.753 22.23 81.293-8.421 28.541-30.978 51.584-57.512 65.049-38.011 19.282-86.026 18.835-124.527.554"/><path stroke="#000" stroke-linecap="round" stroke-linejoin="round" d="M244.561 391.76h.005l21.367-1.108 33.673-1.748 9.7-.507 48.985-2.542 3.405-.176 2.255-52.172m-187.855 10.788-2.761 51.164 7.483-.389 19.011-.986"/><path stroke="#000" stroke-linecap="round" stroke-linejoin="round" d="M180.797 394.613c6.38-7.084 15.994-12.301 25.295-14.391 9.3-2.089 19-1.865 28.437-.527 3.411.485 7.163 1.332 9.14 4.157 1.589 2.276 1.557 5.132.896 7.909a25.697 25.697 0 0 1-1.221 3.698c-3.251 8.032-7.909 15.44-13.17 22.331-1.172 1.54-2.419 3.091-4.071 4.099-1.653 1.007-3.832 1.391-5.543.479a5.241 5.241 0 0 1-2.521-3.762 6.978 6.978 0 0 1-.096-1.935c.192-2.206 1.231-4.237 2.254-6.204 3.454-6.666 6.911-13.336 10.372-20.007"/><path stroke="#000" stroke-linecap="round" stroke-linejoin="round" d="M217.407 418.733a13.186 13.186 0 0 1-9.427 4.003c-2.335 0-5.042-1.013-5.591-3.281a4.67 4.67 0 0 1 .17-2.458c.164-.517.356-1.026.573-1.524a223.77 223.77 0 0 1 12.856-25.785m-13.985 27.127c-1.476.932-2.99 1.875-4.687 2.291-1.697.417-3.64.209-4.934-.954-1.306-1.172-1.719-3.096-1.482-4.84.237-1.743 1.033-3.341 1.811-4.913 2.372-4.77 4.744-9.542 7.115-14.316l2.17-4.36m107.299-1.528c3.802-9.525 13.437-16.426 23.674-16.965 10.237-.538 20.541 5.33 25.313 14.406M223.503 283.779c4.48.464 8.608 2.771 11.98 5.756 3.371 2.985 6.093 6.62 8.783 10.233 3.608-10.18 7.239-20.407 12.386-29.896m16.482.511c5.948 10.83 9.022 22.96 12.039 34.941a129.26 129.26 0 0 1 15.775-23.509m-37.434-11.427a1958.748 1958.748 0 0 1 2.395 119.8m35.669-54.638c-.677 4.896-1.354 9.849-.911 14.773.443 4.925 2.095 9.896 5.521 13.464 3.426 3.567 8.821 5.452 13.511 3.885 2.936-.981 5.356-3.198 7.04-5.799 1.685-2.601 2.691-5.585 3.448-8.586a61.281 61.281 0 0 0 1.823-17.14c0-.043-.005-.086-.005-.128"/><path stroke="#000" stroke-linecap="round" stroke-linejoin="round" d="m301.002 335.41.581.016c6.475.154 12.951.311 19.427.468l5.138.128c1.833.043 3.672.091 5.511.133"/><path stroke="#000" stroke-linecap="round" stroke-linejoin="round" d="M323.925 354.074a232.898 232.898 0 0 0 2.607-23.408 6.646 6.646 0 0 0-.193-2.595 2.31 2.31 0 0 0-1.87-1.626c-1.269-.085-2.175 1.204-2.633 2.393a13.774 13.774 0 0 0-.815 6.63c.165-.052.33-.101.495-.156m86.073 24.53 5.768-5.018m-.628 5.369-4.089-5.399m-58.246-14.474a10.58 10.58 0 0 1-4.744-3.556m-.228 4.294 4.256-5.274m-62.956-15.297 5.862-5.48-.361.192"/><path stroke="#000" stroke-linecap="round" stroke-linejoin="round" d="M290.967 321.721a16.894 16.894 0 0 0-3.762-6.27m-51.703 40.111a9.093 9.093 0 0 1 3.555-3.733m-.559 4.29-3.069-4.219m-45.071-33.203a25.653 25.653 0 0 1 5.246-8.066m-.567 7.194-6.098-5.938m-28.67 69.053-3.754-3.519m-1.235 5.497 4.765-6.521m-1.755 67.718a20.803 20.803 0 0 1-5.016 6.019m4.337-.303-3.168-4.4m103.98-24.178-3.355-5.26a.19.19 0 0 1 .211.078.193.193 0 0 1-.22.294.19.19 0 0 1-.096-.069.19.19 0 0 1-.038-.112m-1.282 4.902 4.756-4.774m88.484.981-3.75-3.526m-.249 4.515 3.511-4.264m-217.503-59.39-4.89-3.577m.39 4.731 3.359-6.035m280.807 64.927-4.076-5.315m-1.173 5.439a35.81 35.81 0 0 0 6.619-5.027m-39.204-104.352 3.511-5.518m.244 5.024-5.318-4.454M26.967 240.329c-8.09 21.836-13.512 45.078-11.825 68.302.506 6.974 1.702 14.058 5.072 20.185 3.37 6.126 9.223 11.204 16.146 12.193 6.922.989 14.642-2.968 16.649-9.667 2.007-6.699-3.471-14.925-10.453-14.539-5.345.295-9.63 5.156-10.697 10.402-1.067 5.245.468 10.689 2.7 15.555 2.929 6.395 7.038 12.174 10.348 18.382 3.31 6.207 5.857 13.125 5.252 20.133-.606 7.009-5.038 14.037-11.814 15.927-6.776 1.89-15.122-3.196-15.078-10.23M470.818 172.72c-.622 17.396-1.425 35.49-9.663 50.823-2.344 4.356-5.365 8.516-9.588 11.093-4.224 2.578-9.826 3.297-14.115.831-4.288-2.466-6.443-8.538-3.811-12.726 2.969-4.726 10.465-4.811 14.707-1.184 4.243 3.626 5.657 9.661 5.404 15.236-.337 7.435-3.147 14.506-5.928 21.406-2.781 6.901-5.607 13.966-5.981 21.398-.373 7.432 2.159 15.441 8.226 19.751 6.067 4.31 15.886 3.311 19.55-3.167 3.664-6.478-2.656-16.432-9.849-14.525a9.978 9.978 0 0 0-5.104 3.456c-3.933 4.874-3.208 12.833 1.54 16.917 4.749 4.083 12.726 3.608 16.956-1.01M259.13 121.592l-5.691-46.69m-12.766 50.852a56.213 56.213 0 0 1-13.267-9.475m48.316 4.141 3.776-9.4m41.401-15.254c4.809-1.986 5.641-8.542 4.456-13.606-1.185-5.064-3.631-10.13-2.614-15.231 1.064-5.345 5.753-9.282 10.74-11.481 5.468-2.41 11.728-3.239 17.5-1.692s10.948 5.615 13.252 11.127c2.304 5.511 1.411 12.38-2.673 16.739-3.884 4.145-9.766 5.548-15.065 7.595-5.299 2.046-10.842 5.681-11.643 11.305"/><path stroke="#000" stroke-linecap="round" stroke-linejoin="round" d="M338.62 89.223a26.79 26.79 0 0 0 5.397-10.203c-1.335 1.083-3.257 2.193-4.62 1.146-1.338-1.028-.814-3.125-.164-4.683a2.957 2.957 0 0 1-2.639 2.278 2.956 2.956 0 0 1-2.277-.797 2.972 2.972 0 0 1-.929-2.227c.01-.415.107-.824.286-1.2l-2.48 11.511m41.343 132.377c12.125-5.745 23.38-11.166 34.64-18.46a10.221 10.221 0 0 0 2.983-2.543c.752-1.078 1.053-2.577.393-3.715-.655-1.129-2.048-1.607-3.348-1.724-3.482-.312-6.818 1.297-9.924 2.903-9.062 4.685-18.128 9.08-26.827 14.424m-.456.318-9.817 9.611 12.296-.762m-4.887.208-2.084-4.166m36.31-11.806-3.015-8.275m-10.899-49.288-1.503-8.652m-3.405 5.598 7.905-3.374m4.906-.344.957 5.53-.28-1.756m4.332-1.361-11.306 8.627m-.981 95.493-3.299-6.44m-4.069 6.788 11.023-8.125M297.614 89.223l-3.762-7.525m-2.276 5.99 7.152-4.507m99.717 5.279-7.147-4.892m4.996-1.038-4.812 6.826m-251.885 56.906c.138 2.622 1.631 5.241 4.028 6.312 7.744 3.46 13.238-7.958 8.655-13.586-5.405-6.637-13.045.455-12.683 7.274Zm37.61 42.669-4.173-5.994m-1.446 5.989 7.152-5.638m-75.645-27.079-6.67-5.392m-.075 6.129 4.513-8.278M93.53 435.542a37.929 37.929 0 0 1-12.891-27.284M422.5 439.821a64.468 64.468 0 0 0 32.641-42.421m-379-128.91a12.244 12.244 0 0 1 .137-19.455c2.712-2.043 6.28-2.975 8.45-5.585 2.563-3.084 2.41-7.579 1.615-11.511a47.033 47.033 0 0 0-6.02-15.265m57.36 24.482c-4.827-10.782-9.664-21.594-13.3-32.836-1.345-4.159-2.462-8.946-.219-12.698.625-1.042 1.601-2 2.812-2.094 1.552-.122 2.82 1.163 3.802 2.369 9.323 11.436 14.988 25.347 20.386 39.078m-13.262 6.148 13.021-5.729"/><path stroke="#000" stroke-linecap="round" stroke-linejoin="round" d="M131.715 213.918c.564-1.012 1.048-1.457 1.966-2.164.788-.652 2.083-.348 2.708.461a3.322 3.322 0 0 1 .385 2.929 3.807 3.807 0 0 1-1.846 2.375 2.553 2.553 0 0 1-2.876-.365c-.817-.817-.828-2.189-.337-3.236Zm-.134 14.989a24.388 24.388 0 0 0-.504 24.699 18.973 18.973 0 0 1 6.231-13.353m7.659-20.807c5.173-1.489 10.901.84 14.598 4.753 3.697 3.914 5.654 9.16 6.866 14.405a24.856 24.856 0 0 0-15.335-4.55m-.317 9.261a61.267 61.267 0 0 0-8.204 3.463"/><path stroke="#000" stroke-linecap="round" stroke-linejoin="round" d="m142.63 246.479-.425 21.963 4.988-10.436 6.581 16.291-.327-14.677a68.93 68.93 0 0 0 10.952 10.211l-6.735-11.673a29.95 29.95 0 0 0 12.932-1.348 71.185 71.185 0 0 0-12.857-3.974l5.761-3.614c-4.167-1.885-8.324-3.79-12.472-5.713m-93.061 30.788 22.671 7.69 15.787-43.221m6.671-157.068 31.068 21.821 2.779-42.582-33.847 20.761ZM264.764 41.82 272.65 20l7.29 18.058-15.176 3.762Zm104.397 88.034 1.479 14.295 16.512-22.558 22.776 13.906m12.572 18.016 16.32 13.209 8.902-18.304-25.222 5.095ZM223.503 98.245l-28.465-37.308-28.607 24.498 20.153 34.985 36.919-22.175Z"/><path stroke="#000" stroke-linecap="round" stroke-linejoin="round" d="m178.74 90.679 21.09-13.933-6.85-5.957-19.642 14.646 5.402 5.244Zm4.129 4.751 18.811-12.249m-13.92 17.704 18.622-11.662m-15.048 18.434 18.81-12.227m-7.854 169.672-7.252-18.243 15.106-.081-7.854 18.324ZM320.089 96.348a85.02 85.02 0 0 1-6.216 15.04l11.086 6.111 4.896-7.931c.932-1.51 4.952-6.123 4.772-7.812-.175-1.634-4.857-2.917-6.25-3.414a39.594 39.594 0 0 0-8.288-1.994Z"/><path stroke="#000" stroke-linecap="round" stroke-linejoin="round" d="M331.53 107.061a45.575 45.575 0 0 0-11.91-7.114M327.506 112l-9.317-9.306m7.155 13.176a75.204 75.204 0 0 1-8.835-9.222m54.062-41.96 5.649-1.864m-16.511-11.589 5.997-13.854v1.056m-28.93 9.779a7.365 7.365 0 0 0-1.559-4.5M319.81 58.373l-7.901-5.266m5.644 23.328-4.514.752m57.516 1.978 9.256 3.986m-20.623 6.879 1.118 2.637m-11.528 3.328-.064 13.485a.415.415 0 0 1-.635-.325"/><path fill="#000" fill-rule="evenodd" d="M248.912 187.038c3.305-2.761 7.877-3.289 12.168-3.614a324.659 324.659 0 0 1 39.775-.565l-.048.997.005.071c.711 10.199 1.426 20.466.395 30.633l.521.058c3.672 4.744 12.069 5.949 16.485 1.887 4.416-4.061 4.413-11.96-.011-16.01 3.555-1.091 6.878-3.318 8.727-6.542 1.85-3.225 2.032-7.51-.037-10.601-2.069-3.091-6.503-4.541-9.792-2.798 2.995-1.956 6.028-3.944 8.442-6.587 2.415-2.644 4.195-6.059 4.142-9.636-.054-3.576-2.249-7.238-5.671-8.293a6.747 6.747 0 0 0-6.774 1.962 12.582 12.582 0 0 0 .33-7.665c-1.039-3.491-4.194-6.432-7.834-6.619a7.184 7.184 0 0 0-6.971 4.775c.134-4.7-4.146-9.359-8.959-9.119-5.411.278-9.529 6.668-7.546 11.71-2.788-3.372-5.89-6.623-9.823-8.542-3.933-1.919-8.848-2.297-12.573-.01-3.725 2.286-5.574 7.642-3.224 11.336-3.853-3.774-8.591-6.876-13.91-7.712-5.319-.837-11.256.954-14.401 5.324-3.146 4.37-2.569 11.32 1.854 14.39-6.39-.895-13.067 3.71-14.502 10.004-1.435 6.294 2.6 13.34 8.75 15.291-4.2 3.858-8.389 8.185-9.833 13.707-1.444 5.522.949 12.435 6.406 14.092-4.141 4.546-3.39 12.626 1.514 16.33 4.903 3.704 12.876 2.223 16.117-3l.645.01c.124-9.391.25-18.782.378-28.172.08-6.161.533-13.138 5.255-17.092Zm53.591-36.782a7.42 7.42 0 0 0 .261-1.765 5.31 5.31 0 0 0-.261 1.765Zm13.425 10.589a15.93 15.93 0 0 0 1.311-2.845 5.09 5.09 0 0 0-1.311 2.845Zm-10.512-11.207a.8.8 0 0 0-.677 1.448c4.668 2.179 7.028 8.38 4.99 13.11a.8.8 0 0 0 1.298.884c1.834-1.819 5.281-1.651 7.217.251 1.926 1.894 2.36 5.117 1.269 7.714-1.089 2.593-3.496 4.558-6.237 5.556a.8.8 0 1 0 .547 1.502c3.056-1.112 5.864-3.344 7.165-6.439 1.298-3.091.849-7.043-1.623-9.473-1.911-1.878-5.018-2.51-7.504-1.522.987-5.093-1.684-10.81-6.445-13.031Z" clip-rule="evenodd"/><path fill="#000" d="M229.915 283.982c-28.615.009-57.32 8.536-82.105 22.669-22.48 12.818-43.036 31.223-52.39 55.915-4.715 12.448-6.314 26.044-4.019 39.173 2.304 13.172 9.145 25.011 18.771 34.206 18.817 17.972 44.966 28.106 70.459 31.458a142.751 142.751 0 0 0 43.506-1.042 132.017 132.017 0 0 0 20.855-5.46c6.844-2.411 13.933-5.113 19.844-9.369 1.754-1.263 2.702-3.325 1.778-5.427-.793-1.804-3.084-3.322-5.126-2.516-5.646 2.228-11.037 5.006-16.73 7.127a130.333 130.333 0 0 1-52.542 8.011c-23.795-1.183-47.467-8.881-66.854-22.85-9.726-7.008-18.328-16.329-22.332-27.803-3.873-11.1-4.166-23.57-1.348-34.954 5.86-23.667 23.847-42.097 43.811-54.992 25.375-16.39 54.496-25.249 84.421-28.24 3.707-.371 3.88-5.91 0-5.908l.001.002Zm139.031 99.285c1.439-7.823 1.624-16.066 2.212-23.993l.869-11.719c.297-3.998 1.179-8.413.406-12.359-.879-4.491-7.055-3.706-8.333 0-1.23 3.567-.872 8.093-1.114 11.849l-.755 11.719c-.497 7.715-1.481 15.714-1.143 23.438.187 4.276 7.004 5.713 7.859 1.063l-.001.002Z" opacity=".1"/><path fill="#000" d="M263.137 454.091c1.093 1.79 1.865 3.103 3.797 4.161 2.127 1.164 4.502 1.855 6.807 2.563 4.038 1.24 8.128 2.316 12.268 3.153a158.054 158.054 0 0 0 25.982 3.05 141.622 141.622 0 0 0 51.516-7.688c9.127-3.195 18.073-6.838 25.213-13.519.966-.903-.052-2.396-1.235-2.122-7.912 1.823-15.372 4.853-23.139 7.188a162.492 162.492 0 0 1-24.36 5.238c-16.015 2.216-32.526 2.17-48.445-.743a168.018 168.018 0 0 1-13.217-2.962c-2.249-.602-4.462-1.372-6.726-1.906a17.043 17.043 0 0 0-3.689-.566c-1.28-.008-2.276.55-3.459.923a2.226 2.226 0 0 0-1.314 3.23h.001Z" opacity=".1"/></svg>