<svg xmlns="http://www.w3.org/2000/svg" width="48" height="48" fill="none"><path stroke="#000" stroke-linecap="round" d="M30.028 46c-6.605-8.323-14.036-11.61-16.302-13.376-3.048-2.378-1.27-3.822 0-4.246 1.482-.425 4.362.127 6.563 2.335 2.202 2.208 3.458 1.345 3.811.637.141-.354.339-1.996 0-5.733-.339-3.736-6.563-5.944-6.563-8.492 0-2.888 2.259-2.619 3.387-2.123 2.118.92 6.563 3.524 7.41 6.581.202 1.351 1.056 4.475 2.853 6.165m2.44-2.13c-.565-1.628-2.164-4.714-5.043-3.185m7.795 4.67c0-1.556.127-4.628-3.599-4.458M44 34.747c-1.694-1.91-3.599-4.671-4.022-7.643-.292-2.046-2.47-3.468-3.81-3.397M9.713 13.002c.124.916 1.866 4.82 2.66 2.622.95-2.622 1.852-5.338 5.912-7.91m5.7 2.9a12.978 12.978 0 0 0-.34-2.47 9.07 9.07 0 0 0-.966-2.447c-3.364-5.751-12.209-4.033-15.577 0-1.321 1.583-4.091 5.6-2.742 10.62.847 3.148 3.592 5.154 6.457 5.593.741.113 1.49.121 2.217.017"/></svg>