<svg xmlns="http://www.w3.org/2000/svg" width="48" height="48" fill="none"><path stroke="#000" stroke-linecap="round" d="M28 30h-4m4 0c0-.3-.066-.586-.185-.842M28 30c0 .258-.049.505-.138.732M26 32v-4m0 4c.252 0 .492-.047.714-.131M26 32a1.99 1.99 0 0 1-.697-.125M24 30c0 .293.063.571.176.822M24 30c0-.3.066-.586.185-.842M26 28c-.245 0-.48.044-.697.125M26 28c.245 0 .48.044.697.125M12 28H8m4 0c0 .258-.049.504-.137.73M12 28c0-.258-.049-.504-.137-.73M10 30v-4m0 4c-.262 0-.511-.05-.74-.142M10 30c.296 0 .577-.064.83-.18M8 28c0-.286.06-.558.169-.805M8 28c0 .258.049.504.137.73M10 26c.296 0 .577.064.83.18M10 26c-.24 0-.47.042-.684.12M20 14v-4m0 4c-.507 0-.97-.188-1.322-.5M20 14c.277 0 .541-.056.781-.158M18 12l4 .036M18 12c0-.268.053-.524.149-.758M18 12c0 .31.07.603.196.864M20 10c.364 0 .706.097 1 .268M20 10a2.02 2.02 0 0 0-.64.104m9.894 8.518c1.415-4.956-.376-13.015-10.011-13.015-10.225 0-12.244 9.167-11.722 14.35.07.691-.393 1.347-1.059 1.607-2.295.895-5.164 3.272-4.307 8.068.987 5.517 7.264 5.945 10.526 5.343m16.573-16.353-16.255 15.86a1.16 1.16 0 0 0-.336.605c-.644 3.319-.203 9.746 5.654 10.755 5.114.88 7.63-2.091 8.564-4.438.26-.654.945-1.105 1.665-1.034 5.486.538 15.217-1.513 15.217-11.949 0-9.825-8.734-11.55-13.983-10.105-.2.055-.38.163-.526.306Zm1.831-2.917C32.943 14.277 36.401 9.538 35.372 2m-2.796 15.869c1.399-1.797 6.041-5.142 13.424-4.147m-21.365 17.74 2.758-2.897m-2.758 2.896c.191.18.418.321.668.414m-.668-.413a2.005 2.005 0 0 1-.459-.64m3.217-2.257a2.001 2.001 0 0 0-.697-.44m.697.44c.174.17.318.37.422.593m-.422 2.277-2.758-2.896m2.758 2.896a2 2 0 0 1-.679.434m.679-.434a2 2 0 0 0 .469-.703m-3.227-2.194a2.01 2.01 0 0 1 .668-.413m-.668.413c-.187.175-.34.385-.45.62m1.119-1.033 1.41 3.744m-1.41.006 1.393-3.75m1.118 1.033-3.639 1.664m.01-1.664 3.676 1.574M22 12.036V12c0-.281-.058-.549-.163-.791m.163.827a1.992 1.992 0 0 1-.163.755m-.316-2.09-2.843 2.8m2.843-2.8a2.01 2.01 0 0 0-.521-.433m.521.433c.13.152.237.323.316.508M18.678 13.5a2.007 2.007 0 0 1-.482-.636m.482-2.366 2.706 2.945M18.678 10.5c-.23.202-.412.456-.53.743m.53-.743c.197-.173.428-.309.682-.395m2.024 3.34a2 2 0 0 0 .453-.653m-.453.653a2.002 2.002 0 0 1-.603.398m1.056-1.05-3.688-1.55m.047 1.622L21 10.268m-1.64-.164 1.421 3.738m-1.42 0 2.476-2.633m-10.335 15.47-2.924 2.727m2.924-2.726a2.006 2.006 0 0 0-.672-.5m.672.5c.152.173.275.372.36.59m-3.284 2.136c.192.195.424.35.682.453m-.682-.453a2.001 2.001 0 0 1-.44-.676m.536-2.227 2.748 2.903m-2.748-2.903a2 2 0 0 1 .642-.383m-.642.383c-.215.19-.388.426-.505.692m3.253 2.211c-.17.172-.37.313-.592.414m.592-.414a2 2 0 0 0 .44-.676m-1.032-2.55-1.57 3.678m1.57-.038-1.514-3.7m-1.147 1.075 3.694 1.535m0-1.46-3.726 1.46M38 26a2 2 0 1 1-4 0 2 2 0 0 1 4 0Zm-18-4a2 2 0 1 1-4 0 2 2 0 0 1 4 0Zm2 16a2 2 0 1 1-4 0 2 2 0 0 1 4 0Z"/></svg>