<svg xmlns="http://www.w3.org/2000/svg" width="48" height="48" fill="none"><path stroke="#000" stroke-linecap="round" d="M23.458 24.874c.157-.022 3.96-.509 3.801-3.902a4.456 4.456 0 0 0-.118-.853m-3.683 4.755c2.084-.132 3.143-.915 3.617-1.854m-3.617 1.854a2.643 2.643 0 0 1-.77-.006m4.453-4.749a3.12 3.12 0 0 0-.335-.844m.335.844c.284.755.433 1.914-.066 2.901m-.27-3.745c-1.167-1.984-4.237-1.39-5.406 0-.458.547-1.42 1.932-.951 3.664.293 1.085 1.246 1.778 2.24 1.929m4.118-5.593c.444.599 1.088 2 .537 3.272m-.268.473c.11-.154.199-.313.268-.473m-4.654 2.32c1.315.22 4.087.063 4.654-2.32m3.02 6.885.283.543c.342.655.497 1.416.185 2.086m-.468-2.629c-.612-1.175-1.864-1.918-3.234-1.918h-6.38c-1.37 0-2.622.742-3.235 1.918l-.139.266c-.429.823-.534 1.795-.083 2.607 1.377 2.48 3.758 3.54 6.166 3.603m6.905-6.476c.63 1.75.128 5.497-6.905 6.476m7.373-3.847c-1.094 2.343-4.257 3.93-7.373 3.847m7.373-3.847c-.305 1.552-2.206 4.496-7.373 3.847M2.435 11.884c0-1.94.197-5.82 4.92-5.82 1.382 0 9.472-.613 9.843 1.94.984 6.79 14.762 2.91 20.668 2.91 5.905 0 7.873 1.94 7.873 6.79 0 .515.023 1.174.054 1.94.265 6.436 1.182 20.471-4.974 21.338-6.89.97-37.4 2.91-38.384-3.88-.561-3.869-.49-11.905-.283-18.428.083-2.635.188-5.023.283-6.79Z"/></svg>