<svg xmlns="http://www.w3.org/2000/svg" width="20" height="20" fill="none"><path stroke="#000" stroke-linecap="round" d="M8.781 18.993c.399-.06 10.035-1.345 9.634-10.309a12.227 12.227 0 0 0-.3-2.252M8.782 18.993c5.282-.349 7.967-2.418 9.168-4.898m-9.17 4.898a6.44 6.44 0 0 1-1.95-.016M18.116 6.432a8.49 8.49 0 0 0-.85-2.23m.85 2.23c.72 1.993 1.096 5.055-.167 7.663m-.683-9.893c-2.959-5.24-10.74-3.675-13.703 0-1.162 1.443-3.599 5.104-2.412 9.679.745 2.868 3.16 4.697 5.68 5.096M17.266 4.202c1.126 1.582 2.76 5.285 1.363 8.644m-.68 1.25c.28-.408.503-.826.68-1.25M6.83 18.977c3.333.58 10.36.165 11.798-6.13M6.667 7.5c.909 2.444 3.226 5.643 3.636 4.887 1.06-1.955 2.576-3.42 3.03-4.887"/></svg>