<svg xmlns="http://www.w3.org/2000/svg" width="32" height="32" fill="none"><path stroke="#000" stroke-linecap="round" d="m2.257 12.896 26.755-4.872c1.375-.25 2.224 1.496 1.207 2.48L18.932 21.433a.767.767 0 0 1-.357.22c-.832.183-2.666-.367-4.54-1.091M1.332 13.776c.903.733 2.828 2.093 4.529 2.744.673.258 1.2.895 1.2 1.635-.003 1.817.083 4.115.39 5.405.16.672.73.529.959-.122l.175-.508m1.179-4.17c3.234-1.572 11.415-5.511 18.268-8.686M8.15 23.864l5.884-3.303m0 0c-.49-.19-.981-.39-1.459-.593M8.36 15.865l8.431-2.895m-8.205 9.96 4.692-2.624-.703-.338M8.586 22.93c.083-.245.17-.507.26-.784m3.73-2.178-3.73 2.178m3.73-2.178c-.27-.115-.535-.23-.793-.344m-2.936 2.522c.093-.287.19-.589.286-.902m0 0c.084-.273.17-.554.254-.841a1.55 1.55 0 0 1 .072-.198m-.326 1.039 2.65-1.62m0 0-.393-.176a1.44 1.44 0 0 0-.22-.079m0 0a1.47 1.47 0 0 0-1.71.836m1.71-.836-1.71.836"/></svg>