<?xml version="1.0" encoding="UTF-8"?>
<svg version="1.1" xmlns="http://www.w3.org/2000/svg" width="174" height="203">
<path d="M0 0 C57.42 0 114.84 0 174 0 C174 66.99 174 133.98 174 203 C116.58 203 59.16 203 0 203 C0 136.01 0 69.02 0 0 Z " fill="transparent" transform="translate(0,0)"/>
<path d="M0 0 C8.32887086 -0.14023488 16.65723257 -0.2462357 24.98699951 -0.31087303 C28.85667194 -0.34192684 32.72552535 -0.38390871 36.59472656 -0.45263672 C75.04409666 -1.11760235 75.04409666 -1.11760235 89.05078125 11.1015625 C89.69402344 11.72804688 90.33726562 12.35453125 91 13 C91.69480469 13.66773438 92.38960938 14.33546875 93.10546875 15.0234375 C103.95647445 26.30196875 107.31796982 38.64976804 107.22705078 53.82006836 C107.22734283 55.09880829 107.22763489 56.37754822 107.22793579 57.69503784 C107.22850731 61.18423842 107.21678566 64.67330021 107.20278788 68.16246867 C107.19024695 71.81530085 107.18910737 75.46813655 107.18673706 79.12098694 C107.18053214 86.03043957 107.16413476 92.93982857 107.14403808 99.84925324 C107.117458 109.1914209 107.10669845 118.53360608 107.09503365 127.87580204 C107.07625341 142.58391565 107.03640119 157.291895 107 172 C84.89 172 62.78 172 40 172 C39.97421875 162.76644531 39.9484375 153.53289062 39.921875 144.01953125 C39.89669535 138.15427594 39.87051536 132.28905304 39.83984375 126.42382812 C39.79139311 117.1234564 39.74691453 107.82319248 39.72900391 98.52270508 C39.71593755 91.74749989 39.68884706 84.97251543 39.64538693 78.1974346 C39.62288317 74.61487858 39.60708258 71.03259367 39.60811615 67.44996071 C39.60900995 63.43614062 39.578573 59.42311126 39.54589844 55.40942383 C39.5509288 54.24056641 39.55595917 53.07170898 39.56114197 51.86743164 C39.40701095 39.55150945 35.96774276 29.12797582 29 19 C28.38125 18.0925 27.7625 17.185 27.125 16.25 C19.84325365 8.53991563 10.26414891 3.45447039 0 1 C0 0.67 0 0.34 0 0 Z " fill="#fff" transform="translate(54,31)"/>
<path d="M0 0 C1.31171832 0.71435134 2.60642375 1.46157304 3.875 2.25 C4.926875 2.848125 5.97875 3.44625 7.0625 4.0625 C13.97704557 9.44047989 19.07540119 16.58138268 20.875 25.25 C20.96284069 27.02841426 20.99700018 28.80981164 20.99525452 30.59039307 C20.99731651 32.21415863 20.99731651 32.21415863 20.99942017 33.87072754 C20.99402725 35.64449768 20.99402725 35.64449768 20.98852539 37.45410156 C20.98867142 38.7031427 20.98881744 39.95218384 20.9889679 41.23907471 C20.98839074 44.66024003 20.98337653 48.08134495 20.97639394 51.50249958 C20.97014131 55.07928095 20.96955509 58.65606313 20.96836853 62.23284912 C20.96526085 69.00425661 20.95705504 75.77564795 20.94701904 82.54704833 C20.93375008 91.69847721 20.92835345 100.84991051 20.92251682 110.00134659 C20.91311478 124.41757649 20.8931921 138.83377231 20.875 153.25 C-1.235 153.25 -23.345 153.25 -46.125 153.25 C-46.28621214 121.30312821 -46.28621214 121.30312821 -46.3203125 107.8828125 C-46.3440174 98.62816468 -46.37183594 89.37366288 -46.42675781 80.11914062 C-46.46674374 73.37813797 -46.49246069 66.63725413 -46.50135398 59.89613616 C-46.50654898 56.32979925 -46.51867768 52.76380215 -46.54792023 49.19757462 C-46.58037207 45.2072495 -46.58095193 41.21750759 -46.57910156 37.22705078 C-46.59348267 36.05675827 -46.60786377 34.88646576 -46.62268066 33.68070984 C-46.56705477 22.56118447 -43.49335127 14.53420277 -35.72265625 6.5234375 C-25.83847068 -2.1270828 -12.41517937 -5.23405538 0 0 Z " fill="#fff" transform="translate(57.125,49.75)"/>
<path d="M0 0 C3.37503669 1.1858237 5.64722731 2.27573689 8 5 C4.23375329 6.25541557 2.62811066 5.37061958 -1 4 C-0.67 2.68 -0.34 1.36 0 0 Z " fill="#fff" transform="translate(134,37)"/>

<path d="M0 0 C3.63 0 7.26 0 11 0 C10.67 1.32 10.34 2.64 10 4 C6.7 3.01 3.4 2.02 0 1 C0 0.67 0 0.34 0 0 Z " fill="#fff" transform="translate(54,31)"/>
<path d="M0 0 C1.65 0.99 3.3 1.98 5 3 C4.01 4.32 3.02 5.64 2 7 C0.4375 5.1875 0.4375 5.1875 -1 3 C-0.67 2.01 -0.34 1.02 0 0 Z " fill="#fff" transform="translate(62,53)"/>
<path d="M0 0 C0 0.66 0 1.32 0 2 C0.66 2.33 1.32 2.66 2 3 C1.01 3 0.02 3 -1 3 C-1.33 3.66 -1.66 4.32 -2 5 C-2.33 4.34 -2.66 3.68 -3 3 C-3.99 3 -4.98 3 -6 3 C-6 2.34 -6 1.68 -6 1 C-4 0 -4 0 0 0 Z " fill="#fff" transform="translate(126,33)"/>
<path d="M0 0 C1.5 1.375 1.5 1.375 3 3 C3 3.66 3 4.32 3 5 C2.34 5 1.68 5 1 5 C0.67 5.66 0.34 6.32 0 7 C-0.66 5.68 -1.32 4.36 -2 3 C-1.34 2.01 -0.68 1.02 0 0 Z " fill="#fff" transform="translate(86,47)"/>
</svg>
