<?xml version="1.0" encoding="UTF-8"?>
<svg version="1.1" xmlns="http://www.w3.org/2000/svg" width="200" height="200">
<path d="M0 0 C1.32 0 2.64 0 4 0 C4 0.66 4 1.32 4 2 C4.66 2 5.32 2 6 2 C6.495 4.97 6.495 4.97 7 8 C7.66 8 8.32 8 9 8 C9.495 10.475 9.495 10.475 10 13 C10.66 13 11.32 13 12 13 C12 13.99 12 14.98 12 16 C12.66 16 13.32 16 14 16 C14.495 18.475 14.495 18.475 15 21 C15.66 21 16.32 21 17 21 C17.495 23.97 17.495 23.97 18 27 C18.66 27 19.32 27 20 27 C20.495 29.475 20.495 29.475 21 32 C21.66 32 22.32 32 23 32 C23 32.99 23 33.98 23 35 C23.66 35 24.32 35 25 35 C25.495 38.465 25.495 38.465 26 42 C27.485 42.495 27.485 42.495 29 43 C29 43.99 29 44.98 29 46 C29.66 46 30.32 46 31 46 C31 47.32 31 48.64 31 50 C31.66 50 32.32 50 33 50 C33.33 50.99 33.66 51.98 34 53 C34.66 53.33 35.32 53.66 36 54 C36.8125 56.875 36.8125 56.875 37 60 C35.75 61.875 35.75 61.875 34 63 C33.01 63 32.02 63 31 63 C31 63.66 31 64.32 31 65 C29.02 65.33 27.04 65.66 25 66 C25.33 66.99 25.66 67.98 26 69 C26.66 69.33 27.32 69.66 28 70 C28 70.66 28 71.32 28 72 C29.98 72.33 31.96 72.66 34 73 C34 73.66 34 74.32 34 75 C34.66 75 35.32 75 36 75 C37.625 76.3125 37.625 76.3125 39 78 C39 78.99 39 79.98 39 81 C39.66 81 40.32 81 41 81 C41.495 84.465 41.495 84.465 42 88 C43.485 88.495 43.485 88.495 45 89 C45 89.99 45 90.98 45 92 C45.66 92 46.32 92 47 92 C47.495 95.465 47.495 95.465 48 99 C49.98 99.495 49.98 99.495 52 100 C52.495 103.96 52.495 103.96 53 108 C51.35 108.33 49.7 108.66 48 109 C48 109.66 48 110.32 48 111 C46.02 111.33 44.04 111.66 42 112 C41.505 113.485 41.505 113.485 41 115 C42.485 115.495 42.485 115.495 44 116 C44 116.66 44 117.32 44 118 C45.98 118.33 47.96 118.66 50 119 C50 119.66 50 120.32 50 121 C50.66 121 51.32 121 52 121 C54.6120831 122.88069983 54.99468505 123.97535795 55.6875 127.1875 C55.790625 128.115625 55.89375 129.04375 56 130 C56.66 130 57.32 130 58 130 C58 131.32 58 132.64 58 134 C58.99 134.33 59.98 134.66 61 135 C61 135.99 61 136.98 61 138 C61.66 138 62.32 138 63 138 C63.33 140.31 63.66 142.62 64 145 C65.32 145.33 66.64 145.66 68 146 C68.33 148.64 68.66 151.28 69 154 C67.35 154.33 65.7 154.66 64 155 C64 155.66 64 156.32 64 157 C63.01 157.33 62.02 157.66 61 158 C60.67 158.66 60.34 159.32 60 160 C58.68 160 57.36 160 56 160 C56 160.66 56 161.32 56 162 C55.01 162.33 54.02 162.66 53 163 C52.67 163.66 52.34 164.32 52 165 C49.67843403 165.40729228 47.3431213 165.74438677 45 166 C45 166.66 45 167.32 45 168 C44.01 168.33 43.02 168.66 42 169 C41.67 169.66 41.34 170.32 41 171 C39.68 171 38.36 171 37 171 C37 171.66 37 172.32 37 173 C35.02 173.33 33.04 173.66 31 174 C31 174.66 31 175.32 31 176 C29.35 176.33 27.7 176.66 26 177 C26 177.66 26 178.32 26 179 C25.01 179 24.02 179 23 179 C23 179.66 23 180.32 23 181 C21.35 181.33 19.7 181.66 18 182 C18 182.66 18 183.32 18 184 C16.02 184.33 14.04 184.66 12 185 C12 185.66 12 186.32 12 187 C10.35 187.33 8.7 187.66 7 188 C7 188.66 7 189.32 7 190 C6.01 190 5.02 190 4 190 C4 190.66 4 191.32 4 192 C2.68 192 1.36 192 0 192 C0 191.34 0 190.68 0 190 C-0.99 190 -1.98 190 -3 190 C-3 189.34 -3 188.68 -3 188 C-4.65 187.67 -6.3 187.34 -8 187 C-8 186.34 -8 185.68 -8 185 C-9.98 184.67 -11.96 184.34 -14 184 C-14 183.34 -14 182.68 -14 182 C-15.65 181.67 -17.3 181.34 -19 181 C-19 180.34 -19 179.68 -19 179 C-19.99 179 -20.98 179 -22 179 C-22 178.34 -22 177.68 -22 177 C-23.65 176.67 -25.3 176.34 -27 176 C-27 175.34 -27 174.68 -27 174 C-28.98 173.67 -30.96 173.34 -33 173 C-33 172.34 -33 171.68 -33 171 C-34.32 171 -35.64 171 -37 171 C-37.495 170.01 -37.495 170.01 -38 169 C-38.99 168.67 -39.98 168.34 -41 168 C-41 167.34 -41 166.68 -41 166 C-42.7015625 165.814375 -42.7015625 165.814375 -44.4375 165.625 C-45.613125 165.41875 -46.78875 165.2125 -48 165 C-48.495 164.01 -48.495 164.01 -49 163 C-49.99 162.67 -50.98 162.34 -52 162 C-52 161.34 -52 160.68 -52 160 C-53.32 160 -54.64 160 -56 160 C-56.33 159.34 -56.66 158.68 -57 158 C-57.99 157.67 -58.98 157.34 -60 157 C-60 156.34 -60 155.68 -60 155 C-61.65 154.67 -63.3 154.34 -65 154 C-64.75 150.625 -64.75 150.625 -64 147 C-62.66666667 146.33333333 -61.33333333 145.66666667 -60 145 C-59.18129815 141.43793339 -59.18129815 141.43793339 -59 138 C-58.34 138 -57.68 138 -57 138 C-56.505 136.02 -56.505 136.02 -56 134 C-55.34 134 -54.68 134 -54 134 C-54 132.68 -54 131.36 -54 130 C-53.34 130 -52.68 130 -52 130 C-51.8453125 128.6078125 -51.8453125 128.6078125 -51.6875 127.1875 C-50.99468505 123.97535795 -50.6120831 122.88069983 -48 121 C-47.34 121 -46.68 121 -46 121 C-46 120.34 -46 119.68 -46 119 C-43.03 118.505 -43.03 118.505 -40 118 C-40 117.34 -40 116.68 -40 116 C-38.515 115.505 -38.515 115.505 -37 115 C-37.33 114.01 -37.66 113.02 -38 112 C-39.98 111.67 -41.96 111.34 -44 111 C-44 110.34 -44 109.68 -44 109 C-45.65 108.67 -47.3 108.34 -49 108 C-48.67 105.36 -48.34 102.72 -48 100 C-46.02 99.505 -46.02 99.505 -44 99 C-43.67 96.69 -43.34 94.38 -43 92 C-42.34 92 -41.68 92 -41 92 C-40.67 90.68 -40.34 89.36 -40 88 C-39.34 88 -38.68 88 -38 88 C-37.87625 87.0925 -37.7525 86.185 -37.625 85.25 C-36.7767221 80.83895494 -35.48573578 77.90477982 -32 75 C-31.34 75 -30.68 75 -30 75 C-30 74.34 -30 73.68 -30 73 C-27.03 72.505 -27.03 72.505 -24 72 C-24 71.34 -24 70.68 -24 70 C-23.01 69.34 -22.02 68.68 -21 68 C-21 67.34 -21 66.68 -21 66 C-23.97 65.505 -23.97 65.505 -27 65 C-27 64.34 -27 63.68 -27 63 C-28.65 62.67 -30.3 62.34 -32 62 C-32.79953138 58.71303767 -33.09658936 57.28976808 -32 54 C-31.34 54 -30.68 54 -30 54 C-29.67 52.68 -29.34 51.36 -29 50 C-28.34 50 -27.68 50 -27 50 C-27 48.68 -27 47.36 -27 46 C-26.34 46 -25.68 46 -25 46 C-24.67 44.68 -24.34 43.36 -24 42 C-23.34 42 -22.68 42 -22 42 C-21.67 39.69 -21.34 37.38 -21 35 C-20.34 35 -19.68 35 -19 35 C-19 34.01 -19 33.02 -19 32 C-18.34 32 -17.68 32 -17 32 C-16.67 30.35 -16.34 28.7 -16 27 C-15.34 27 -14.68 27 -14 27 C-13.67 25.02 -13.34 23.04 -13 21 C-12.34 21 -11.68 21 -11 21 C-10.67 19.35 -10.34 17.7 -10 16 C-9.34 16 -8.68 16 -8 16 C-8 15.01 -8 14.02 -8 13 C-7.34 13 -6.68 13 -6 13 C-5.67 11.35 -5.34 9.7 -5 8 C-4.34 8 -3.68 8 -3 8 C-2.67 6.02 -2.34 4.04 -2 2 C-1.34 2 -0.68 2 0 2 C0 1.34 0 0.68 0 0 Z " fill="#111111" transform="translate(98,4)"/>
<path d="M0 0 C0.66 0 1.32 0 2 0 C2 21.12 2 42.24 2 64 C0.02 64 -1.96 64 -4 64 C-3.67 64.33 -3.34 64.66 -3 65 C-3 65.66 -3 66.32 -3 67 C-1.68 67.33 -0.36 67.66 1 68 C1 68.66 1 69.32 1 70 C2.32 70 3.64 70 5 70 C5.495 68.515 5.495 68.515 6 67 C6.99 67 7.98 67 9 67 C9 66.34 9 65.68 9 65 C11.475 64.505 11.475 64.505 14 64 C14 63.34 14 62.68 14 62 C14.99 62 15.98 62 17 62 C17 61.34 17 60.68 17 60 C21.85963179 60.60745397 25.7405518 62.72758967 30 65 C30 65.66 30 66.32 30 67 C30.66 67 31.32 67 32 67 C32 67.66 32 68.32 32 69 C33.485 69.495 33.485 69.495 35 70 C35.33 71.65 35.66 73.3 36 75 C36.66 75 37.32 75 38 75 C38 75.99 38 76.98 38 78 C38.66 78 39.32 78 40 78 C40.33 79.65 40.66 81.3 41 83 C41.66 83 42.32 83 43 83 C43.33 84.98 43.66 86.96 44 89 C44.66 89 45.32 89 46 89 C46.99 90.98 47.98 92.96 49 95 C47.54462432 95.83848804 46.08559627 96.67063934 44.625 97.5 C43.81289062 97.9640625 43.00078125 98.428125 42.1640625 98.90625 C40 100 40 100 38 100 C38 100.66 38 101.32 38 102 C36.02 102.33 34.04 102.66 32 103 C32 103.66 32 104.32 32 105 C31.34 105 30.68 105 30 105 C29.34 106.65 28.68 108.3 28 110 C28.53109375 109.77183594 29.0621875 109.54367188 29.609375 109.30859375 C30.31578125 109.02113281 31.0221875 108.73367187 31.75 108.4375 C32.79414063 108.00244141 32.79414063 108.00244141 33.859375 107.55859375 C36.30012784 106.92168197 37.6403655 107.19751169 40 108 C40.33 109.32 40.66 110.64 41 112 C42.65 112.33 44.3 112.66 46 113 C46 113.66 46 114.32 46 115 C41.75366122 118.41778487 38.40694067 119.56744475 33 120 C33 120.66 33 121.32 33 122 C32.01 122 31.02 122 30 122 C30 122.66 30 123.32 30 124 C28.35 124.33 26.7 124.66 25 125 C25 125.66 25 126.32 25 127 C24.01 127 23.02 127 22 127 C22 127.66 22 128.32 22 129 C20.92878906 129.56589844 19.85757813 130.13179687 18.75390625 130.71484375 C17.3567202 131.45563367 15.95958753 132.19652429 14.5625 132.9375 C13.85544922 133.31068359 13.14839844 133.68386719 12.41992188 134.06835938 C8.99521342 135.72492335 8.99521342 135.72492335 6 138 C4.47480724 137.91062197 2.95318071 137.75462854 1.4375 137.5625 C0.61121094 137.46066406 -0.21507812 137.35882813 -1.06640625 137.25390625 C-1.70449219 137.17011719 -2.34257813 137.08632812 -3 137 C-3 136.34 -3 135.68 -3 135 C-3.66 134.7525 -4.32 134.505 -5 134.25 C-8.76360907 132.68182955 -12.3711424 130.85494954 -16 129 C-16 128.34 -16 127.68 -16 127 C-16.70125 126.896875 -17.4025 126.79375 -18.125 126.6875 C-21.39137647 125.90640997 -24.0471852 124.57941257 -27 123 C-27 122.34 -27 121.68 -27 121 C-27.99 121 -28.98 121 -30 121 C-30 120.34 -30 119.68 -30 119 C-32.31 118.67 -34.62 118.34 -37 118 C-37 117.34 -37 116.68 -37 116 C-38.32 115.67 -39.64 115.34 -41 115 C-41 114.34 -41 113.68 -41 113 C-40.01 113 -39.02 113 -38 113 C-38 112.34 -38 111.68 -38 111 C-30.48520179 106.87623318 -30.48520179 106.87623318 -26.84375 107.1796875 C-24.9375 107.75 -24.9375 107.75 -22 109 C-22 108.34 -22 107.68 -22 107 C-22.66 107 -23.32 107 -24 107 C-24 106.34 -24 105.68 -24 105 C-24.86625 104.814375 -24.86625 104.814375 -25.75 104.625 C-28 104 -28 104 -29.9375 102.875 C-32.00698913 101.76509324 -32.00698913 101.76509324 -34.375 102.5 C-37.75506083 103.14382111 -39.84707029 102.2465071 -43 101 C-43 100.34 -43 99.68 -43 99 C-44.65 98.67 -46.3 98.34 -48 98 C-47.67 95.36 -47.34 92.72 -47 90 C-45.02 89.505 -45.02 89.505 -43 89 C-42.67 86.69 -42.34 84.38 -42 82 C-41.34 82 -40.68 82 -40 82 C-39.67 80.68 -39.34 79.36 -39 78 C-38.34 78 -37.68 78 -37 78 C-36.87625 77.0925 -36.7525 76.185 -36.625 75.25 C-35.7767221 70.83895494 -34.48573578 67.90477982 -31 65 C-30.34 65 -29.68 65 -29 65 C-29 64.34 -29 63.68 -29 63 C-26.03 62.505 -26.03 62.505 -23 62 C-23 61.34 -23 60.68 -23 60 C-22.34 59.360625 -21.68 58.72125 -21 58.0625 C-18.65192708 56.11987668 -18.65192708 56.11987668 -19 53 C-19.66 53 -20.32 53 -21 53 C-22.02104551 52.02149805 -23.0206121 51.02019573 -24 50 C-24.66 49.67 -25.32 49.34 -26 49 C-26 47.68 -26 46.36 -26 45 C-25.34 45 -24.68 45 -24 45 C-24 44.01 -24 43.02 -24 42 C-23.34 42 -22.68 42 -22 42 C-21.67 40.35 -21.34 38.7 -21 37 C-20.34 37 -19.68 37 -19 37 C-18.67 35.35 -18.34 33.7 -18 32 C-17.34 32 -16.68 32 -16 32 C-15.67 29.69 -15.34 27.38 -15 25 C-14.34 25 -13.68 25 -13 25 C-12.814375 24.1646875 -12.814375 24.1646875 -12.625 23.3125 C-11.94023145 20.77885636 -11.00866237 18.42078968 -10 16 C-9.34 16 -8.68 16 -8 16 C-6.92474806 13.34771188 -5.90543849 10.71631546 -5 8 C-4.34 8 -3.68 8 -3 8 C-2.67 6.35 -2.34 4.7 -2 3 C-1.34 3 -0.68 3 0 3 C0 2.01 0 1.02 0 0 Z " fill="#151515" transform="translate(97,14)"/>
<path d="M0 0 C3.73487777 0.4979837 5.81237635 0.87491756 9 3 C9 3.66 9 4.32 9 5 C10.03125 5.103125 11.0625 5.20625 12.125 5.3125 C16.01792678 6.00318056 18.6821423 6.86709148 22 9 C22.875 11.1875 22.875 11.1875 23 13 C24.134375 13.12375 25.26875 13.2475 26.4375 13.375 C27.613125 13.58125 28.78875 13.7875 30 14 C30.495 14.99 30.495 14.99 31 16 C33.02463255 16.65213292 33.02463255 16.65213292 35 17 C35 17.66 35 18.32 35 19 C36.98 19.33 38.96 19.66 41 20 C41 20.66 41 21.32 41 22 C41.804375 22.12375 42.60875 22.2475 43.4375 22.375 C44.7059375 22.684375 44.7059375 22.684375 46 23 C47.47905238 25.95810476 47.12190903 28.9547155 47.09765625 32.1953125 C47.0962413 32.90275604 47.09482635 33.61019958 47.09336853 34.33908081 C47.087766 36.60109669 47.07521318 38.86301398 47.0625 41.125 C47.05748532 42.65755065 47.05292236 44.19010286 47.04882812 45.72265625 C47.03779577 49.48180888 47.02052952 53.24088772 47 57 C46.01 57 45.02 57 44 57 C44 56.34 44 55.68 44 55 C41.03 54.505 41.03 54.505 38 54 C38 53.34 38 52.68 38 52 C36.35 51.67 34.7 51.34 33 51 C33 50.34 33 49.68 33 49 C32.01 49 31.02 49 30 49 C30 48.34 30 47.68 30 47 C28.35 46.67 26.7 46.34 25 46 C25 45.34 25 44.68 25 44 C22.03 43.505 22.03 43.505 19 43 C19 42.34 19 41.68 19 41 C18.34 41 17.68 41 17 41 C17 40.34 17 39.68 17 39 C15.02 38.67 13.04 38.34 11 38 C11 37.34 11 36.68 11 36 C9.35 35.67 7.7 35.34 6 35 C6 34.34 6 33.68 6 33 C5.27425781 32.88785156 4.54851563 32.77570313 3.80078125 32.66015625 C0.87436007 31.97038613 -1.22287809 30.94489186 -3.8125 29.4375 C-4.60269531 28.98246094 -5.39289062 28.52742188 -6.20703125 28.05859375 C-6.79871094 27.70925781 -7.39039063 27.35992187 -8 27 C-8 26.34 -8 25.68 -8 25 C-9.65 24.67 -11.3 24.34 -13 24 C-12.67 22.35 -12.34 20.7 -12 19 C-11.34 19 -10.68 19 -10 19 C-9.34 17.35 -8.68 15.7 -8 14 C-7.34 14 -6.68 14 -6 14 C-5.8453125 12.6696875 -5.8453125 12.6696875 -5.6875 11.3125 C-4.98284093 7.9173245 -4.0445434 5.78057902 -2 3 C-1.34 3 -0.68 3 0 3 C0 2.01 0 1.02 0 0 Z " fill="#F8F8F8" transform="translate(51,132)"/>
<path d="M0 0 C1.32 0 2.64 0 4 0 C4 0.99 4 1.98 4 3 C4.66 3 5.32 3 6 3 C6.495 5.475 6.495 5.475 7 8 C7.66 8 8.32 8 9 8 C9 8.99 9 9.98 9 11 C9.66 11 10.32 11 11 11 C11.495 13.97 11.495 13.97 12 17 C12.66 17 13.32 17 14 17 C14.66 18.98 15.32 20.96 16 23 C15.34 23 14.68 23 14 23 C14 23.66 14 24.32 14 25 C13.34 25 12.68 25 12 25 C12 25.66 12 26.32 12 27 C9.03 27.495 9.03 27.495 6 28 C6 28.66 6 29.32 6 30 C4.35 30.33 2.7 30.66 1 31 C1 31.66 1 32.32 1 33 C-4.75 36 -4.75 36 -7 36 C-7 36.66 -7 37.32 -7 38 C-9.97 38.495 -9.97 38.495 -13 39 C-13 39.66 -13 40.32 -13 41 C-13.66 41 -14.32 41 -15 41 C-15 41.66 -15 42.32 -15 43 C-17.97 43.495 -17.97 43.495 -21 44 C-21 44.66 -21 45.32 -21 46 C-23.475 46.495 -23.475 46.495 -26 47 C-26 47.66 -26 48.32 -26 49 C-28.97 49.495 -28.97 49.495 -32 50 C-32 50.66 -32 51.32 -32 52 C-32.66 52 -33.32 52 -34 52 C-34 52.66 -34 53.32 -34 54 C-39.625 57 -39.625 57 -43 57 C-43.02468857 52.4793335 -43.04285449 47.9587061 -43.05493164 43.43798828 C-43.05996552 41.89956987 -43.06679308 40.36115625 -43.07543945 38.82275391 C-43.08754639 36.61359474 -43.09323769 34.40449874 -43.09765625 32.1953125 C-43.10281754 31.50567413 -43.10797882 30.81603577 -43.11329651 30.10549927 C-43.11387171 25.22774341 -43.11387171 25.22774341 -42 23 C-39.4375 22.375 -39.4375 22.375 -37 22 C-37 21.34 -37 20.68 -37 20 C-35.02 19.67 -33.04 19.34 -31 19 C-31 18.34 -31 17.68 -31 17 C-29.35 16.67 -27.7 16.34 -26 16 C-26 15.34 -26 14.68 -26 14 C-25.01 14 -24.02 14 -23 14 C-23 13.34 -23 12.68 -23 12 C-21.35 11.67 -19.7 11.34 -18 11 C-18 10.34 -18 9.68 -18 9 C-12.375 6 -12.375 6 -9 6 C-9 5.34 -9 4.68 -9 4 C-6.03 3.34 -3.06 2.68 0 2 C0 1.34 0 0.68 0 0 Z " fill="#F7F7F7" transform="translate(145,132)"/>
<path d="M0 0 C4.3600884 0.39637167 7.46124601 1.39797501 11 4 C11 4.66 11 5.32 11 6 C11.66 6 12.32 6 13 6 C13 6.66 13 7.32 13 8 C11.205625 7.6596875 11.205625 7.6596875 9.375 7.3125 C5.10192406 6.75184819 2.72314053 7.78384492 -1 10 C-1.66 10 -2.32 10 -3 10 C-3 10.66 -3 11.32 -3 12 C-3.99 12 -4.98 12 -6 12 C-5.67 12.66 -5.34 13.32 -5 14 C-4.01 14.33 -3.02 14.66 -2 15 C-2 15.66 -2 16.32 -2 17 C0.31 17.33 2.62 17.66 5 18 C5 18.66 5 19.32 5 20 C5.99 20 6.98 20 8 20 C8.495 20.99 8.495 20.99 9 22 C11.34038186 23.13102526 11.34038186 23.13102526 14.0625 24.125 C14.98160156 24.47820312 15.90070313 24.83140625 16.84765625 25.1953125 C17.55792969 25.46085937 18.26820312 25.72640625 19 26 C19 26.66 19 27.32 19 28 C19.66 28.2475 20.32 28.495 21 28.75 C24.76360907 30.31817045 28.3711424 32.14505046 32 34 C32 34.66 32 35.32 32 36 C39.31881012 36.76237605 43.10508297 35.16987815 49 31 C54.5862069 28 54.5862069 28 57 28 C57 27.34 57 26.68 57 26 C57.99 26 58.98 26 60 26 C60 25.34 60 24.68 60 24 C61.65 23.67 63.3 23.34 65 23 C65 22.34 65 21.68 65 21 C65.99 21 66.98 21 68 21 C68 20.34 68 19.68 68 19 C69.216875 18.54625 70.43375 18.0925 71.6875 17.625 C74.8080927 16.45547059 77.91230616 15.25437562 81 14 C79.68 15.65 78.36 17.3 77 19 C78.98 18.34 80.96 17.68 83 17 C83 17.66 83 18.32 83 19 C80.03 19.66 77.06 20.32 74 21 C74 21.66 74 22.32 74 23 C68.375 26 68.375 26 65 26 C65 26.66 65 27.32 65 28 C63.35 28.33 61.7 28.66 60 29 C60 29.66 60 30.32 60 31 C59.01 31 58.02 31 57 31 C57 31.66 57 32.32 57 33 C55.35 33.33 53.7 33.66 52 34 C52 34.66 52 35.32 52 36 C50.02 36.33 48.04 36.66 46 37 C46 37.66 46 38.32 46 39 C44.35 39.33 42.7 39.66 41 40 C40.67 51.22 40.34 62.44 40 74 C41.98 73.01 43.96 72.02 46 71 C46.99 71 47.98 71 49 71 C49 70.34 49 69.68 49 69 C49.66 69 50.32 69 51 69 C51 68.34 51 67.68 51 67 C52.98 66.67 54.96 66.34 57 66 C57 65.34 57 64.68 57 64 C58.65 63.67 60.3 63.34 62 63 C62 62.34 62 61.68 62 61 C63.98 60.67 65.96 60.34 68 60 C68 59.34 68 58.68 68 58 C69.65 57.67 71.3 57.34 73 57 C73 58.65 73 60.3 73 62 C71.02 62.33 69.04 62.66 67 63 C67 63.66 67 64.32 67 65 C65.35 65.33 63.7 65.66 62 66 C62 66.66 62 67.32 62 68 C61.01 68 60.02 68 59 68 C59 68.66 59 69.32 59 70 C57.35 70.33 55.7 70.66 54 71 C54 71.66 54 72.32 54 73 C52.02 73.33 50.04 73.66 48 74 C48 74.66 48 75.32 48 76 C46.35 76.33 44.7 76.66 43 77 C43 77.66 43 78.32 43 79 C42.01 79 41.02 79 40 79 C40 79.66 40 80.32 40 81 C38.68 81 37.36 81 36 81 C36 80.34 36 79.68 36 79 C35.01 79 34.02 79 33 79 C33 78.34 33 77.68 33 77 C31.35 76.67 29.7 76.34 28 76 C28 75.34 28 74.68 28 74 C25.03 73.505 25.03 73.505 22 73 C22 72.34 22 71.68 22 71 C20.35 70.67 18.7 70.34 17 70 C17 69.34 17 68.68 17 68 C16.01 68 15.02 68 14 68 C14 67.34 14 66.68 14 66 C12.35 65.67 10.7 65.34 9 65 C9 64.34 9 63.68 9 63 C6.03 62.505 6.03 62.505 3 62 C3 61.34 3 60.68 3 60 C1.68 60 0.36 60 -1 60 C-1.33 59.34 -1.66 58.68 -2 58 C-3.485 57.505 -3.485 57.505 -5 57 C-5 56.34 -5 55.68 -5 55 C-6.7015625 54.814375 -6.7015625 54.814375 -8.4375 54.625 C-9.613125 54.41875 -10.78875 54.2125 -12 54 C-12.33 53.34 -12.66 52.68 -13 52 C-13.99 51.67 -14.98 51.34 -16 51 C-16 50.34 -16 49.68 -16 49 C-17.32 49 -18.64 49 -20 49 C-20.33 48.34 -20.66 47.68 -21 47 C-21.99 46.67 -22.98 46.34 -24 46 C-24 45.34 -24 44.68 -24 44 C-25.65 43.67 -27.3 43.34 -29 43 C-28.75 39.625 -28.75 39.625 -28 36 C-26.66666667 35.33333333 -25.33333333 34.66666667 -24 34 C-23.18129815 30.43793339 -23.18129815 30.43793339 -23 27 C-22.34 27 -21.68 27 -21 27 C-20.67 25.68 -20.34 24.36 -20 23 C-19.34 23 -18.68 23 -18 23 C-18 21.68 -18 20.36 -18 19 C-17.34 19 -16.68 19 -16 19 C-15.896875 18.071875 -15.79375 17.14375 -15.6875 16.1875 C-14.99468505 12.97535795 -14.6120831 11.88069983 -12 10 C-11.34 10 -10.68 10 -10 10 C-10 9.34 -10 8.68 -10 8 C-8.02 7.67 -6.04 7.34 -4 7 C-4 6.34 -4 5.68 -4 5 C-3.01 4.67 -2.02 4.34 -1 4 C-1 3.01 -1 2.02 -1 1 C-0.67 0.67 -0.34 0.34 0 0 Z M-11 17 C-11 17.99 -11 18.98 -11 20 C-11.66 20 -12.32 20 -13 20 C-13.67408308 21.26691507 -14.33900497 22.53870749 -15 23.8125 C-15.37125 24.52019531 -15.7425 25.22789062 -16.125 25.95703125 C-17.19685358 28.08920729 -17.19685358 28.08920729 -17 31 C-17.66 31 -18.32 31 -19 31 C-19.66 32.65 -20.32 34.3 -21 36 C-21.66 36 -22.32 36 -23 36 C-23.33 37.65 -23.66 39.3 -24 41 C-22.35 41.33 -20.7 41.66 -19 42 C-19 42.66 -19 43.32 -19 44 C-17.2335343 45.0076952 -15.46166177 46.00591714 -13.6875 47 C-12.70136719 47.556875 -11.71523438 48.11375 -10.69921875 48.6875 C-8.05057529 50.21864753 -8.05057529 50.21864753 -5 50 C-5 50.66 -5 51.32 -5 52 C-3.35 52.33 -1.7 52.66 0 53 C0 53.66 0 54.32 0 55 C1.98 55.33 3.96 55.66 6 56 C6 56.66 6 57.32 6 58 C6.66 58 7.32 58 8 58 C8 58.66 8 59.32 8 60 C10.97 60.495 10.97 60.495 14 61 C14 61.66 14 62.32 14 63 C15.65 63.33 17.3 63.66 19 64 C19 64.66 19 65.32 19 66 C19.99 66 20.98 66 22 66 C22 66.66 22 67.32 22 68 C23.65 68.33 25.3 68.66 27 69 C27 69.66 27 70.32 27 71 C29.97 71.495 29.97 71.495 33 72 C33 72.66 33 73.32 33 74 C33.99 74 34.98 74 36 74 C36.02468857 69.4793335 36.04285449 64.9587061 36.05493164 60.43798828 C36.05996552 58.89956987 36.06679308 57.36115625 36.07543945 55.82275391 C36.08754639 53.61359474 36.09323769 51.40449874 36.09765625 49.1953125 C36.10281754 48.50567413 36.10797882 47.81603577 36.11329651 47.10549927 C36.16318164 43.42940345 36.16318164 43.42940345 35 40 C32.47266765 39.34444881 32.47266765 39.34444881 30 39 C30 38.34 30 37.68 30 37 C28.02 36.67 26.04 36.34 24 36 C24 35.34 24 34.68 24 34 C23.360625 33.87625 22.72125 33.7525 22.0625 33.625 C21.0415625 33.315625 21.0415625 33.315625 20 33 C19.505 32.01 19.505 32.01 19 31 C16.67843403 30.59270772 14.3431213 30.25561323 12 30 C11.93554688 29.38640625 11.87109375 28.7728125 11.8046875 28.140625 C11.18179599 25.79817101 11.18179599 25.79817101 8.8203125 24.734375 C7.93085937 24.40953125 7.04140625 24.0846875 6.125 23.75 C5.24070312 23.41484375 4.35640625 23.0796875 3.4453125 22.734375 C0.94666329 21.8561857 0.94666329 21.8561857 -2 22 C-2.33 21.01 -2.66 20.02 -3 19 C-5.98459129 17.04457812 -7.26414791 17 -11 17 Z " fill="#121212" transform="translate(62,115)"/>
<path d="M0 0 C0.66 0 1.32 0 2 0 C2.33 1.65 2.66 3.3 3 5 C3.66 5 4.32 5 5 5 C5 5.99 5 6.98 5 8 C5.66 8 6.32 8 7 8 C7.495 10.475 7.495 10.475 8 13 C8.66 13 9.32 13 10 13 C10.495 15.97 10.495 15.97 11 19 C11.66 19 12.32 19 13 19 C13.99 20.98 14.98 22.96 16 25 C14.54462432 25.83848804 13.08559627 26.67063934 11.625 27.5 C10.81289062 27.9640625 10.00078125 28.428125 9.1640625 28.90625 C7 30 7 30 5 30 C5 30.66 5 31.32 5 32 C2.03 32.495 2.03 32.495 -1 33 C-1 33.66 -1 34.32 -1 35 C-1.66 35 -2.32 35 -3 35 C-3 35.66 -3 36.32 -3 37 C-5.97 37.495 -5.97 37.495 -9 38 C-9 38.66 -9 39.32 -9 40 C-11.475 40.495 -11.475 40.495 -14 41 C-14 41.66 -14 42.32 -14 43 C-14.99 43 -15.98 43 -17 43 C-17 43.66 -17 44.32 -17 45 C-19.475 45.495 -19.475 45.495 -22 46 C-22 46.66 -22 47.32 -22 48 C-24.97 48.495 -24.97 48.495 -28 49 C-28.02469081 44.6217488 -28.04285557 40.24353433 -28.05493164 35.86523438 C-28.05996514 34.37531834 -28.06679242 32.88540726 -28.07543945 31.39550781 C-28.08754805 29.25584696 -28.09323807 27.11625132 -28.09765625 24.9765625 C-28.10289307 23.68830566 -28.10812988 22.40004883 -28.11352539 21.07275391 C-28 18 -28 18 -27 16 C-26.34 16 -25.68 16 -25 16 C-25 15.34 -25 14.68 -25 14 C-23.02 13.67 -21.04 13.34 -19 13 C-19 12.34 -19 11.68 -19 11 C-17.35 10.67 -15.7 10.34 -14 10 C-14 9.34 -14 8.68 -14 8 C-13.01 8 -12.02 8 -11 8 C-11 7.34 -11 6.68 -11 6 C-9.35 5.67 -7.7 5.34 -6 5 C-6 4.34 -6 3.68 -6 3 C-4.02 2.67 -2.04 2.34 0 2 C0 1.34 0 0.68 0 0 Z " fill="#F5F5F5" transform="translate(130,84)"/>
<path d="M0 0 C0.66 0 1.32 0 2 0 C2 0.66 2 1.32 2 2 C4.475 2.495 4.475 2.495 7 3 C7 3.66 7 4.32 7 5 C7.99 5 8.98 5 10 5 C10 5.66 10 6.32 10 7 C12.97 7.495 12.97 7.495 16 8 C16 8.66 16 9.32 16 10 C18.475 10.495 18.475 10.495 21 11 C21 11.66 21 12.32 21 13 C21.5775 13.12375 22.155 13.2475 22.75 13.375 C25 14 25 14 29 16 C29 26.56 29 37.12 29 48 C28.01 48 27.02 48 26 48 C26 47.34 26 46.68 26 46 C23.69 45.67 21.38 45.34 19 45 C19 44.34 19 43.68 19 43 C18.01 43 17.02 43 16 43 C16 42.34 16 41.68 16 41 C15.29875 40.896875 14.5975 40.79375 13.875 40.6875 C10.60862353 39.90640997 7.9528148 38.57941257 5 37 C5 36.34 5 35.68 5 35 C4.484375 34.9175 3.96875 34.835 3.4375 34.75 C-0.04455732 33.67859775 -2.87200885 31.86476395 -6 30 C-6 29.34 -6 28.68 -6 28 C-8.31 27.34 -10.62 26.68 -13 26 C-12.4527072 21.43352568 -10.46510576 18.1502319 -8 14.375 C-5.09316341 9.89917129 -5.09316341 9.89917129 -3 5 C-2.34 5 -1.68 5 -1 5 C-0.67 3.35 -0.34 1.7 0 0 Z " fill="#F8F8F8" transform="translate(68,84)"/>
<path d="M0 0 C0 0.66 0 1.32 0 2 C2.475 2.495 2.475 2.495 5 3 C5 3.66 5 4.32 5 5 C5.99 5 6.98 5 8 5 C8 5.66 8 6.32 8 7 C10.475 7.495 10.475 7.495 13 8 C13 8.66 13 9.32 13 10 C15.97 10.495 15.97 10.495 19 11 C19 11.66 19 12.32 19 13 C21.475 13.495 21.475 13.495 24 14 C24 14.66 24 15.32 24 16 C24.598125 16.144375 25.19625 16.28875 25.8125 16.4375 C27.56150404 16.8872439 29.28677023 17.42892341 31 18 C31 17.34 31 16.68 31 16 C32.98 15.67 34.96 15.34 37 15 C37 14.34 37 13.68 37 13 C38.65 12.67 40.3 12.34 42 12 C42.33 10.68 42.66 9.36 43 8 C44.32 8 45.64 8 47 8 C47 7.34 47 6.68 47 6 C48.98 5.67 50.96 5.34 53 5 C53.33 4.01 53.66 3.02 54 2 C55.70703125 1.015625 55.70703125 1.015625 57.8125 0.25 C58.49957031 -0.01296875 59.18664062 -0.2759375 59.89453125 -0.546875 C62.28143969 -1.06056958 63.70637773 -0.76282269 66 0 C66.495 1.98 66.495 1.98 67 4 C68.65 4.33 70.3 4.66 72 5 C72 5.66 72 6.32 72 7 C67.75366122 10.41778487 64.40694067 11.56744475 59 12 C59 12.66 59 13.32 59 14 C58.01 14 57.02 14 56 14 C56 14.66 56 15.32 56 16 C54.35 16.33 52.7 16.66 51 17 C51 17.66 51 18.32 51 19 C50.01 19 49.02 19 48 19 C48 19.66 48 20.32 48 21 C46.92878906 21.56589844 45.85757813 22.13179687 44.75390625 22.71484375 C43.3567202 23.45563367 41.95958753 24.19652429 40.5625 24.9375 C39.85544922 25.31068359 39.14839844 25.68386719 38.41992188 26.06835938 C34.99521342 27.72492335 34.99521342 27.72492335 32 30 C30.47480724 29.91062197 28.95318071 29.75462854 27.4375 29.5625 C26.61121094 29.46066406 25.78492188 29.35882813 24.93359375 29.25390625 C24.29550781 29.17011719 23.65742187 29.08632812 23 29 C23 28.34 23 27.68 23 27 C22.34 26.7525 21.68 26.505 21 26.25 C17.23639093 24.68182955 13.6288576 22.85494954 10 21 C10 20.34 10 19.68 10 19 C9.29875 18.896875 8.5975 18.79375 7.875 18.6875 C4.60862353 17.90640997 1.9528148 16.57941257 -1 15 C-1 14.34 -1 13.68 -1 13 C-1.99 13 -2.98 13 -4 13 C-4 12.34 -4 11.68 -4 11 C-6.31 10.67 -8.62 10.34 -11 10 C-11 9.34 -11 8.68 -11 8 C-12.32 7.67 -13.64 7.34 -15 7 C-15 6.34 -15 5.68 -15 5 C-14.01 5 -13.02 5 -12 5 C-12 4.34 -12 3.68 -12 3 C-10.75823305 2.29773859 -9.50614401 1.61370891 -8.25 0.9375 C-7.20585938 0.36322266 -7.20585938 0.36322266 -6.140625 -0.22265625 C-3.63859372 -1.1312406 -2.4667645 -0.88336837 0 0 Z " fill="#F5F5F5" transform="translate(71,122)"/>
<path d="M0 0 C4 4 4 4 4 6 C4.66 6 5.32 6 6 6 C6.309375 7.093125 6.61875 8.18625 6.9375 9.3125 C7.58337897 11.55407994 8.2623117 13.7869351 9 16 C9.66 16 10.32 16 11 16 C11.33 16.99 11.66 17.98 12 19 C12.66 19.33 13.32 19.66 14 20 C14.40729228 22.32156597 14.74438677 24.6568787 15 27 C15.66 27 16.32 27 17 27 C17 27.99 17 28.98 17 30 C17.66 30 18.32 30 19 30 C19.33 31.65 19.66 33.3 20 35 C20.66 35 21.32 35 22 35 C22 35.99 22 36.98 22 38 C23.485 38.495 23.485 38.495 25 39 C25.33 41.31 25.66 43.62 26 46 C24.515 46.495 24.515 46.495 23 47 C22.84660156 47.639375 22.69320312 48.27875 22.53515625 48.9375 C22 51 22 51 20.43359375 52.125 C19.77488281 52.41375 19.11617187 52.7025 18.4375 53 C17.71691406 53.32871094 16.99632813 53.65742187 16.25390625 53.99609375 C15.51011719 54.32738281 14.76632813 54.65867188 14 55 C12.62142474 55.6803025 11.24628107 56.3676119 9.875 57.0625 C6.58333333 58.70833333 3.29166667 60.35416667 0 62 C0 41.54 0 21.08 0 0 Z " fill="#F8F8F8" transform="translate(102,16)"/>
<path d="M0 0 C0.66 0 1.32 0 2 0 C2 18.81 2 37.62 2 57 C-1.73643625 56.25271275 -4.61694483 55.59755383 -8 54 C-8.33 53.34 -8.66 52.68 -9 52 C-9.99 51.67 -10.98 51.34 -12 51 C-12 50.34 -12 49.68 -12 49 C-13.093125 48.896875 -14.18625 48.79375 -15.3125 48.6875 C-18.9618448 48.00711368 -19.81168 47.76419369 -22 45 C-22.66 44.67 -23.32 44.34 -24 44 C-24 42.68 -24 41.36 -24 40 C-23.34 40 -22.68 40 -22 40 C-22 39.01 -22 38.02 -22 37 C-21.34 37 -20.68 37 -20 37 C-19.67 35.35 -19.34 33.7 -19 32 C-18.34 32 -17.68 32 -17 32 C-16.67 30.35 -16.34 28.7 -16 27 C-15.34 27 -14.68 27 -14 27 C-13.67 24.69 -13.34 22.38 -13 20 C-12.34 20 -11.68 20 -11 20 C-10.87625 19.443125 -10.7525 18.88625 -10.625 18.3125 C-9.94023145 15.77885636 -9.00866237 13.42078968 -8 11 C-7.34 11 -6.68 11 -6 11 C-4.92474806 8.34771188 -3.90543849 5.71631546 -3 3 C-2.34 3 -1.68 3 -1 3 C-0.67 2.01 -0.34 1.02 0 0 Z " fill="#F7F7F7" transform="translate(95,19)"/>
<path d="M0 0 C4.85963179 0.60745397 8.7405518 2.72758967 13 5 C13 6.32 13 7.64 13 9 C11.35 9.33 9.7 9.66 8 10 C8 10.66 8 11.32 8 12 C6.02 12.33 4.04 12.66 2 13 C2 13.66 2 14.32 2 15 C0.21118264 16.00508801 -1.58114696 17.00392736 -3.375 18 C-4.37273437 18.556875 -5.37046875 19.11375 -6.3984375 19.6875 C-9 21 -9 21 -11 21 C-11 21.66 -11 22.32 -11 23 C-12.98 23 -14.96 23 -17 23 C-17 22.34 -17 21.68 -17 21 C-17.99 21 -18.98 21 -20 21 C-20 20.34 -20 19.68 -20 19 C-21.093125 18.71125 -22.18625 18.4225 -23.3125 18.125 C-27 17 -27 17 -30 15 C-30 14.34 -30 13.68 -30 13 C-32.97 12.505 -32.97 12.505 -36 12 C-36 11.34 -36 10.68 -36 10 C-37.65 9.67 -39.3 9.34 -41 9 C-41 7.68 -41 6.36 -41 5 C-39.02 4.67 -37.04 4.34 -35 4 C-35 3.34 -35 2.68 -35 2 C-28.375 0.875 -28.375 0.875 -25 2 C-25 2.66 -25 3.32 -25 4 C-22.525 4.495 -22.525 4.495 -20 5 C-20 5.66 -20 6.32 -20 7 C-18.68 7.33 -17.36 7.66 -16 8 C-16 8.66 -16 9.32 -16 10 C-14.68 10 -13.36 10 -12 10 C-11.67 9.01 -11.34 8.02 -11 7 C-10.01 7 -9.02 7 -8 7 C-8 6.34 -8 5.68 -8 5 C-6.35 4.67 -4.7 4.34 -3 4 C-3 3.34 -3 2.68 -3 2 C-2.01 2 -1.02 2 0 2 C0 1.34 0 0.68 0 0 Z " fill="#EFEFEF" transform="translate(114,74)"/>
<path d="M0 0 C4.3600884 0.39637167 7.46124601 1.39797501 11 4 C11 4.66 11 5.32 11 6 C11.66 6 12.32 6 13 6 C13 6.66 13 7.32 13 8 C11.205625 7.6596875 11.205625 7.6596875 9.375 7.3125 C5.10192406 6.75184819 2.72314053 7.78384492 -1 10 C-1.66 10 -2.32 10 -3 10 C-3 10.66 -3 11.32 -3 12 C-3.99 12 -4.98 12 -6 12 C-5.67 12.66 -5.34 13.32 -5 14 C-4.01 14.33 -3.02 14.66 -2 15 C-2 15.99 -2 16.98 -2 18 C-4.97 17.67 -7.94 17.34 -11 17 C-11 17.99 -11 18.98 -11 20 C-11.66 20 -12.32 20 -13 20 C-13.1546875 20.7734375 -13.1546875 20.7734375 -13.3125 21.5625 C-14.24263866 24.86026435 -15.61395512 27.86633332 -17 31 C-17.66 31 -18.32 31 -19 31 C-19.99 33.475 -19.99 33.475 -21 36 C-21.66 36 -22.32 36 -23 36 C-23.495 38.475 -23.495 38.475 -24 41 C-22.35 41.33 -20.7 41.66 -19 42 C-19 42.66 -19 43.32 -19 44 C-18.44828125 44.11214844 -17.8965625 44.22429687 -17.328125 44.33984375 C-14.59934789 45.11360773 -12.27227057 46.26817694 -9.75 47.5625 C-8.41195312 48.24505859 -8.41195312 48.24505859 -7.046875 48.94140625 C-6.03367187 49.46541016 -6.03367187 49.46541016 -5 50 C-5 50.66 -5 51.32 -5 52 C-3.35 52.33 -1.7 52.66 0 53 C0 53.66 0 54.32 0 55 C1.98 55.33 3.96 55.66 6 56 C6 56.66 6 57.32 6 58 C6.66 58 7.32 58 8 58 C8 58.66 8 59.32 8 60 C10.97 60.495 10.97 60.495 14 61 C14 61.66 14 62.32 14 63 C15.65 63.33 17.3 63.66 19 64 C19 64.66 19 65.32 19 66 C19.99 66 20.98 66 22 66 C22 66.66 22 67.32 22 68 C23.65 68.33 25.3 68.66 27 69 C27 69.66 27 70.32 27 71 C29.97 71.495 29.97 71.495 33 72 C33 72.66 33 73.32 33 74 C31.741875 74.020625 30.48375 74.04125 29.1875 74.0625 C28.47980469 74.07410156 27.77210937 74.08570313 27.04296875 74.09765625 C25 74 25 74 22 73 C22 72.34 22 71.68 22 71 C20.35 70.67 18.7 70.34 17 70 C17 69.34 17 68.68 17 68 C16.01 68 15.02 68 14 68 C14 67.34 14 66.68 14 66 C12.35 65.67 10.7 65.34 9 65 C9 64.34 9 63.68 9 63 C6.03 62.505 6.03 62.505 3 62 C3 61.34 3 60.68 3 60 C1.68 60 0.36 60 -1 60 C-1.33 59.34 -1.66 58.68 -2 58 C-3.485 57.505 -3.485 57.505 -5 57 C-5 56.34 -5 55.68 -5 55 C-6.7015625 54.814375 -6.7015625 54.814375 -8.4375 54.625 C-9.613125 54.41875 -10.78875 54.2125 -12 54 C-12.33 53.34 -12.66 52.68 -13 52 C-13.99 51.67 -14.98 51.34 -16 51 C-16 50.34 -16 49.68 -16 49 C-17.32 49 -18.64 49 -20 49 C-20.33 48.34 -20.66 47.68 -21 47 C-21.99 46.67 -22.98 46.34 -24 46 C-24 45.34 -24 44.68 -24 44 C-25.65 43.67 -27.3 43.34 -29 43 C-28.75 39.625 -28.75 39.625 -28 36 C-26.66666667 35.33333333 -25.33333333 34.66666667 -24 34 C-23.18129815 30.43793339 -23.18129815 30.43793339 -23 27 C-22.34 27 -21.68 27 -21 27 C-20.67 25.68 -20.34 24.36 -20 23 C-19.34 23 -18.68 23 -18 23 C-18 21.68 -18 20.36 -18 19 C-17.34 19 -16.68 19 -16 19 C-15.896875 18.071875 -15.79375 17.14375 -15.6875 16.1875 C-14.99468505 12.97535795 -14.6120831 11.88069983 -12 10 C-11.34 10 -10.68 10 -10 10 C-10 9.34 -10 8.68 -10 8 C-8.02 7.67 -6.04 7.34 -4 7 C-4 6.34 -4 5.68 -4 5 C-3.01 4.67 -2.02 4.34 -1 4 C-1 3.01 -1 2.02 -1 1 C-0.67 0.67 -0.34 0.34 0 0 Z " fill="#0E0E0E" transform="translate(62,115)"/>
<path d="M0 0 C0.66 0.33 1.32 0.66 2 1 C0.68 2.32 -0.64 3.64 -2 5 C-0.02 4.34 1.96 3.68 4 3 C4 3.66 4 4.32 4 5 C1.03 5.66 -1.94 6.32 -5 7 C-5 7.66 -5 8.32 -5 9 C-10.625 12 -10.625 12 -14 12 C-14 12.66 -14 13.32 -14 14 C-15.65 14.33 -17.3 14.66 -19 15 C-19 15.66 -19 16.32 -19 17 C-19.99 17 -20.98 17 -22 17 C-22 17.66 -22 18.32 -22 19 C-23.65 19.33 -25.3 19.66 -27 20 C-27 20.66 -27 21.32 -27 22 C-28.98 22.33 -30.96 22.66 -33 23 C-33 23.66 -33 24.32 -33 25 C-34.9375 25.5625 -34.9375 25.5625 -37 26 C-37.33 25.67 -37.66 25.34 -38 25 C-39.155 24.855625 -40.31 24.71125 -41.5 24.5625 C-42.655 24.376875 -43.81 24.19125 -45 24 C-45.33 23.34 -45.66 22.68 -46 22 C-44.2675 22.1546875 -44.2675 22.1546875 -42.5 22.3125 C-37.24873309 22.33105571 -34.17789164 19.90035453 -30 17 C-24.4137931 14 -24.4137931 14 -22 14 C-22 13.34 -22 12.68 -22 12 C-21.01 12 -20.02 12 -19 12 C-19 11.34 -19 10.68 -19 10 C-17.35 9.67 -15.7 9.34 -14 9 C-14 8.34 -14 7.68 -14 7 C-13.01 7 -12.02 7 -11 7 C-11 6.34 -11 5.68 -11 5 C-10.45730469 4.80664062 -9.91460937 4.61328125 -9.35546875 4.4140625 C-8.64003906 4.15367187 -7.92460937 3.89328125 -7.1875 3.625 C-6.47980469 3.36976563 -5.77210938 3.11453125 -5.04296875 2.8515625 C-2.75226641 1.9734231 -2.75226641 1.9734231 0 0 Z " fill="#444444" transform="translate(141,129)"/>
<path d="M0 0 C0.66 0 1.32 0 2 0 C2 10.56 2 21.12 2 32 C-5 34 -5 34 -7 34 C-7 33.34 -7 32.68 -7 32 C-8.98 31.67 -10.96 31.34 -13 31 C-13 30.34 -13 29.68 -13 29 C-14.65 28.67 -16.3 28.34 -18 28 C-18 27.34 -18 26.68 -18 26 C-18.99 26 -19.98 26 -21 26 C-21.33 25.34 -21.66 24.68 -22 24 C-24.02463255 23.34786708 -24.02463255 23.34786708 -26 23 C-25.67 22.34 -25.34 21.68 -25 21 C-24.01 21.33 -23.02 21.66 -22 22 C-21.67 21.34 -21.34 20.68 -21 20 C-18.36 21.32 -15.72 22.64 -13 24 C-13 24.66 -13 25.32 -13 26 C-12.01 26 -11.02 26 -10 26 C-10 26.66 -10 27.32 -10 28 C-7.69 28.33 -5.38 28.66 -3 29 C-3 29.66 -3 30.32 -3 31 C-2.01 31 -1.02 31 0 31 C0 20.77 0 10.54 0 0 Z " fill="#454545" transform="translate(97,101)"/>
<path d="M0 0 C0 0.66 0 1.32 0 2 C0.99 2 1.98 2 3 2 C3.33 2.66 3.66 3.32 4 4 C6.34038186 5.13102526 6.34038186 5.13102526 9.0625 6.125 C9.98160156 6.47820312 10.90070313 6.83140625 11.84765625 7.1953125 C12.55792969 7.46085938 13.26820312 7.72640625 14 8 C14 8.66 14 9.32 14 10 C14.66 10.2475 15.32 10.495 16 10.75 C19.76360907 12.31817045 23.3711424 14.14505046 27 16 C27 16.66 27 17.32 27 18 C24.36 18 21.72 18 19 18 C19 17.34 19 16.68 19 16 C17.35 15.67 15.7 15.34 14 15 C14 14.34 14 13.68 14 13 C11.69 12.67 9.38 12.34 7 12 C6.67 10.68 6.34 9.36 6 8 C5.01 7.8453125 5.01 7.8453125 4 7.6875 C-5.65060241 5.47590361 -5.65060241 5.47590361 -9 1.8125 C-9.33 1.214375 -9.66 0.61625 -10 0 C-6.30581799 -1.231394 -3.7943739 -0.64432764 0 0 Z " fill="#2C2C2C" transform="translate(67,133)"/>
<path d="M0 0 C0.66 0 1.32 0 2 0 C2 21.12 2 42.24 2 64 C0.68 64 -0.64 64 -2 64 C-2 63.34 -2 62.68 -2 62 C-1.34 62 -0.68 62 0 62 C0 43.19 0 24.38 0 5 C-0.66 5 -1.32 5 -2 5 C-2 4.34 -2 3.68 -2 3 C-1.34 3 -0.68 3 0 3 C0 2.01 0 1.02 0 0 Z " fill="#5F5F5F" transform="translate(97,14)"/>
<path d="M0 0 C0.66 0.33 1.32 0.66 2 1 C2 2.32 2 3.64 2 5 C0.02 5.33 -1.96 5.66 -4 6 C-4 6.66 -4 7.32 -4 8 C-5.65 8.33 -7.3 8.66 -9 9 C-9 9.66 -9 10.32 -9 11 C-9.99 11 -10.98 11 -12 11 C-12 11.66 -12 12.32 -12 13 C-13.65 13.33 -15.3 13.66 -17 14 C-17 14.66 -17 15.32 -17 16 C-20.375 16.625 -20.375 16.625 -24 17 C-24.66 16.34 -25.32 15.68 -26 15 C-24.68 14.67 -23.36 14.34 -22 14 C-22 13.34 -22 12.68 -22 12 C-21.34 12 -20.68 12 -20 12 C-20 11.34 -20 10.68 -20 10 C-18.02 9.67 -16.04 9.34 -14 9 C-14 8.34 -14 7.68 -14 7 C-12.35 6.67 -10.7 6.34 -9 6 C-9 5.34 -9 4.68 -9 4 C-7.02 3.67 -5.04 3.34 -3 3 C-3 2.34 -3 1.68 -3 1 C-2.01 0.67 -1.02 0.34 0 0 Z " fill="#0E0E0E" transform="translate(133,172)"/>
<path d="M0 0 C1.65 0.33 3.3 0.66 5 1 C5 1.66 5 2.32 5 3 C6.32 3.33 7.64 3.66 9 4 C9 4.66 9 5.32 9 6 C9.763125 6.103125 10.52625 6.20625 11.3125 6.3125 C14.17059424 7.04364039 15.15742885 7.76951913 17 10 C15.125 11.0625 15.125 11.0625 13 12 C12.34 11.67 11.68 11.34 11 11 C11 10.34 11 9.68 11 9 C7.7 9 4.4 9 1 9 C1 9.66 1 10.32 1 11 C-0.32 11.33 -1.64 11.66 -3 12 C-3.75 9.75 -3.75 9.75 -4 7 C-2.0625 4.875 -2.0625 4.875 0 3 C0 2.01 0 1.02 0 0 Z " fill="#1A1A1A" transform="translate(78,67)"/>
<path d="M0 0 C0.66 0.33 1.32 0.66 2 1 C1.375 3.4375 1.375 3.4375 0 6 C-3.125 6.8125 -3.125 6.8125 -6 7 C-6 7.66 -6 8.32 -6 9 C-7.32 9 -8.64 9 -10 9 C-10.33 10.32 -10.66 11.64 -11 13 C-12.65 13.33 -14.3 13.66 -16 14 C-16 14.66 -16 15.32 -16 16 C-17.65 16.33 -19.3 16.66 -21 17 C-21 16.34 -21 15.68 -21 15 C-20.01 15 -19.02 15 -18 15 C-18 14.34 -18 13.68 -18 13 C-19.32 12.67 -20.64 12.34 -22 12 C-20.02 11.67 -18.04 11.34 -16 11 C-16 10.34 -16 9.68 -16 9 C-14.35 8.67 -12.7 8.34 -11 8 C-11 7.34 -11 6.68 -11 6 C-10.01 6 -9.02 6 -8 6 C-8 5.34 -8 4.68 -8 4 C-6.35 3.67 -4.7 3.34 -3 3 C-3 2.34 -3 1.68 -3 1 C-2.01 0.67 -1.02 0.34 0 0 Z " fill="#1D1D1D" transform="translate(124,121)"/>
<path d="M0 0 C0.66 0 1.32 0 2 0 C2 0.66 2 1.32 2 2 C4.97 2.495 4.97 2.495 8 3 C8 3.66 8 4.32 8 5 C8.721875 5.28875 9.44375 5.5775 10.1875 5.875 C12.79166667 6.91666667 15.39583333 7.95833333 18 9 C18 9.66 18 10.32 18 11 C18.99 11 19.98 11 21 11 C21 11.66 21 12.32 21 13 C20.01 13.495 20.01 13.495 19 14 C18.67 14.66 18.34 15.32 18 16 C15.5 14.625 15.5 14.625 13 13 C13 12.34 13 11.68 13 11 C11.35 10.67 9.7 10.34 8 10 C8 9.34 8 8.68 8 8 C5.03 7.505 5.03 7.505 2 7 C2 6.34 2 5.68 2 5 C1.01 5 0.02 5 -1 5 C-0.67 3.35 -0.34 1.7 0 0 Z " fill="#202020" transform="translate(76,84)"/>
<path d="M0 0 C4 4 4 4 4 6 C4.66 6 5.32 6 6 6 C6 6.66 6 7.32 6 8 C3.525 7.01 3.525 7.01 1 6 C1 23.49 1 40.98 1 59 C3.475 58.505 3.475 58.505 6 58 C5 60 5 60 0 62 C0 41.54 0 21.08 0 0 Z " fill="#C0C0C0" transform="translate(102,16)"/>
<path d="M0 0 C0.66 0 1.32 0 2 0 C2 18.81 2 37.62 2 57 C1.01 56.67 0.02 56.34 -1 56 C-0.34 56 0.32 56 1 56 C0.67 38.84 0.34 21.68 0 4 C-1.32 5.32 -2.64 6.64 -4 8 C-3.67 6.35 -3.34 4.7 -3 3 C-2.34 3 -1.68 3 -1 3 C-0.67 2.01 -0.34 1.02 0 0 Z " fill="#EAEAEA" transform="translate(95,19)"/>
<path d="M0 0 C1.9375 0.375 1.9375 0.375 4 1 C5.47905238 3.95810476 5.12190903 6.9547155 5.09765625 10.1953125 C5.0962413 10.90275604 5.09482635 11.61019958 5.09336853 12.33908081 C5.087766 14.60109669 5.07521318 16.86301398 5.0625 19.125 C5.05748532 20.65755065 5.05292236 22.19010286 5.04882812 23.72265625 C5.03779577 27.48180888 5.02052952 31.24088772 5 35 C4.01 35 3.02 35 2 35 C2 24.44 2 13.88 2 3 C1.34 2.67 0.68 2.34 0 2 C0 1.34 0 0.68 0 0 Z " fill="#BABABA" transform="translate(93,154)"/>
<path d="M0 0 C3.96 1.98 7.92 3.96 12 6 C12 6.66 12 7.32 12 8 C9.36 8 6.72 8 4 8 C4 7.34 4 6.68 4 6 C2.35 5.67 0.7 5.34 -1 5 C-0.67 3.35 -0.34 1.7 0 0 Z " fill="#373737" transform="translate(82,143)"/>
<path d="M0 0 C0.66 0 1.32 0 2 0 C2.33 1.65 2.66 3.3 3 5 C1.02 5.33 -0.96 5.66 -3 6 C-3 6.66 -3 7.32 -3 8 C-4.32 8.33 -5.64 8.66 -7 9 C-7 8.34 -7 7.68 -7 7 C-8.32 7.33 -9.64 7.66 -11 8 C-11 7.34 -11 6.68 -11 6 C-9.02 5.67 -7.04 5.34 -5 5 C-5 4.34 -5 3.68 -5 3 C-3.35 2.67 -1.7 2.34 0 2 C0 1.34 0 0.68 0 0 Z " fill="#222222" transform="translate(127,81)"/>
<path d="M0 0 C0.66 0.33 1.32 0.66 2 1 C2 2.32 2 3.64 2 5 C-0.31 5.33 -2.62 5.66 -5 6 C-5.33 5.01 -5.66 4.02 -6 3 C-5.01 3 -4.02 3 -3 3 C-3 2.34 -3 1.68 -3 1 C-2.01 0.67 -1.02 0.34 0 0 Z " fill="#070707" transform="translate(133,172)"/>
<path d="M0 0 C1.22589844 0.01353516 1.22589844 0.01353516 2.4765625 0.02734375 C3.41628906 0.04474609 3.41628906 0.04474609 4.375 0.0625 C4.375 0.7225 4.375 1.3825 4.375 2.0625 C2.725 2.3925 1.075 2.7225 -0.625 3.0625 C-0.625 3.7225 -0.625 4.3825 -0.625 5.0625 C-2.275 5.3925 -3.925 5.7225 -5.625 6.0625 C-5.625 5.4025 -5.625 4.7425 -5.625 4.0625 C-4.635 4.0625 -3.645 4.0625 -2.625 4.0625 C-2.625 3.4025 -2.625 2.7425 -2.625 2.0625 C-3.945 1.7325 -5.265 1.4025 -6.625 1.0625 C-4.21954362 -0.14022819 -2.67503047 -0.03821472 0 0 Z " fill="#545454" transform="translate(108.625,131.9375)"/>
<path d="M0 0 C1.32 0.33 2.64 0.66 4 1 C3.67 1.66 3.34 2.32 3 3 C2.34 3 1.68 3 1 3 C1 3.66 1 4.32 1 5 C-0.98 5.33 -2.96 5.66 -5 6 C-5 5.01 -5 4.02 -5 3 C-3.35 2.67 -1.7 2.34 0 2 C0 1.34 0 0.68 0 0 Z " fill="#0F0F0F" transform="translate(113,127)"/>
<path d="M0 0 C0 0.66 0 1.32 0 2 C-1.65 1.67 -3.3 1.34 -5 1 C-5 1.66 -5 2.32 -5 3 C-4.01 3 -3.02 3 -2 3 C-2 3.66 -2 4.32 -2 5 C-5.24208567 4.64950425 -6.61527704 4.43778819 -8.8125 1.9375 C-9.4003125 0.9784375 -9.4003125 0.9784375 -10 0 C-6.30581799 -1.231394 -3.7943739 -0.64432764 0 0 Z " fill="#4D4D4D" transform="translate(67,133)"/>
<path d="M0 0 C0.66 0 1.32 0 2 0 C2 0.66 2 1.32 2 2 C4.97 2.495 4.97 2.495 8 3 C8 3.66 8 4.32 8 5 C6.68 5 5.36 5 4 5 C4.33 5.66 4.66 6.32 5 7 C4.01 7 3.02 7 2 7 C2 6.34 2 5.68 2 5 C1.01 5 0.02 5 -1 5 C-0.67 3.35 -0.34 1.7 0 0 Z " fill="#414141" transform="translate(76,84)"/>
<path d="M0 0 C3.68754757 0.49831724 5.60490662 1.10067643 8 4 C6.125 5.0625 6.125 5.0625 4 6 C3.34 5.67 2.68 5.34 2 5 C2 4.34 2 3.68 2 3 C1.34 3 0.68 3 0 3 C0 2.01 0 1.02 0 0 Z " fill="#212121" transform="translate(87,73)"/>
<path d="M0 0 C0.556875 0.226875 1.11375 0.45375 1.6875 0.6875 C0.875 2.625 0.875 2.625 -0.3125 4.6875 C-1.3025 5.0175 -2.2925 5.3475 -3.3125 5.6875 C-3.3125 5.0275 -3.3125 4.3675 -3.3125 3.6875 C-4.9625 4.0175 -6.6125 4.3475 -8.3125 4.6875 C-6.63215242 1.32680485 -3.76400767 -0.50864968 0 0 Z " fill="#282828" transform="translate(111.3125,73.3125)"/>
<path d="M0 0 C2.4375 0.375 2.4375 0.375 5 1 C5.33 1.66 5.66 2.32 6 3 C6.99 3.66 7.98 4.32 9 5 C6.36 5.33 3.72 5.66 1 6 C0.67 4.02 0.34 2.04 0 0 Z " fill="#343434" transform="translate(89,129)"/>
<path d="M0 0 C0 0.66 0 1.32 0 2 C-0.99 2.495 -0.99 2.495 -2 3 C-2.33 3.66 -2.66 4.32 -3 5 C-5.5 3.625 -5.5 3.625 -8 2 C-8 1.34 -8 0.68 -8 0 C-5.13822943 -1.43088528 -3.06624227 -0.59991697 0 0 Z " fill="#282828" transform="translate(97,95)"/>
<path d="M0 0 C0.66 0 1.32 0 2 0 C3.38232443 1.62626404 4.71937515 3.2925002 6 5 C5.67 5.66 5.34 6.32 5 7 C3.02 6.34 1.04 5.68 -1 5 C-0.67 3.35 -0.34 1.7 0 0 Z " fill="#181818" transform="translate(71,81)"/>
<path d="M0 0 C0.66 1.32 1.32 2.64 2 4 C0.1875 5.0625 0.1875 5.0625 -2 6 C-2.99 5.67 -3.98 5.34 -5 5 C-5 4.34 -5 3.68 -5 3 C-2.5 1.375 -2.5 1.375 0 0 Z " fill="#363636" transform="translate(108,92)"/>
<path d="M0 0 C0 0.66 0 1.32 0 2 C-0.66 2 -1.32 2 -2 2 C-2 2.66 -2 3.32 -2 4 C-3.98 4.33 -5.96 4.66 -8 5 C-7.25 3.0625 -7.25 3.0625 -6 1 C-3.86997684 0.20124132 -2.26695035 0 0 0 Z " fill="#060606" transform="translate(124,142)"/>
<path d="M0 0 C1.32 0.66 2.64 1.32 4 2 C3.67 3.32 3.34 4.64 3 6 C2.34 6 1.68 6 1 6 C0.67 5.34 0.34 4.68 0 4 C-2.02463255 3.34786708 -2.02463255 3.34786708 -4 3 C-3.67 2.34 -3.34 1.68 -3 1 C-2.01 1.33 -1.02 1.66 0 2 C0 1.34 0 0.68 0 0 Z " fill="#282828" transform="translate(75,121)"/>
<path d="M0 0 C0 0.66 0 1.32 0 2 C-0.66 2 -1.32 2 -2 2 C-2 2.66 -2 3.32 -2 4 C-3.32 4.33 -4.64 4.66 -6 5 C-6 3.68 -6 2.36 -6 1 C-4 0 -4 0 0 0 Z " fill="#0C0C0C" transform="translate(138,134)"/>
<path d="M0 0 C-0.33 1.32 -0.66 2.64 -1 4 C-2.98 4.33 -4.96 4.66 -7 5 C-6.1875 3.0625 -6.1875 3.0625 -5 1 C-2 0 -2 0 0 0 Z " fill="#050505" transform="translate(120,88)"/>
<path d="M0 0 C2.97 0.495 2.97 0.495 6 1 C5.67 2.32 5.34 3.64 5 5 C2 4 2 4 0.8125 1.9375 C0.544375 1.298125 0.27625 0.65875 0 0 Z " fill="#070707" transform="translate(76,142)"/>
<path d="M0 0 C0 0.99 0 1.98 0 3 C1.43750191 4.68798827 1.43750191 4.68798827 3 6 C1.35 6 -0.3 6 -2 6 C-2.33 4.35 -2.66 2.7 -3 1 C-2.01 0.67 -1.02 0.34 0 0 Z " fill="#3C3C3C" transform="translate(132,116)"/>
<path d="M0 0 C-0.33 1.32 -0.66 2.64 -1 4 C-1.66 4 -2.32 4 -3 4 C-3 3.34 -3 2.68 -3 2 C-4.32 2.33 -5.64 2.66 -7 3 C-7 2.34 -7 1.68 -7 1 C-4 0 -4 0 0 0 Z " fill="#343434" transform="translate(123,86)"/>
</svg>
