<svg xmlns="http://www.w3.org/2000/svg" width="32" height="32" fill="none"><path stroke="#000" stroke-linecap="round" d="M14.05 30.389c.637-.095 16.056-2.151 15.414-16.494a19.57 19.57 0 0 0-.479-3.603M14.05 30.389c8.451-.558 12.746-3.87 14.668-7.837M14.05 30.39a10.27 10.27 0 0 1-3.12-.026m18.055-20.071c-.32-1.36-.782-2.546-1.36-3.569m1.36 3.569c1.152 3.189 1.754 8.088-.267 12.26m-1.093-15.83c-4.734-8.385-17.183-5.88-21.924 0-1.86 2.31-5.759 8.166-3.859 15.486 1.191 4.59 5.055 7.516 9.088 8.154m16.695-23.64c1.802 2.53 4.415 8.457 2.18 13.83m-1.087 2a11.04 11.04 0 0 0 1.088-2m-18.876 9.81c5.333.928 16.574.265 18.876-9.81m-17.062-8.247c.916-.625 6.011-3.96 4.464-.99C15.66 14.286 14 17.333 14 22.666"/></svg>