<svg xmlns="http://www.w3.org/2000/svg" width="48" height="48" fill="none"><path stroke="#000" stroke-linecap="round" d="M32.793 4.304 34.561 2m.27 5.097L42 3.004m-5.944 7.862h3.672M11.78 33v12.823c0 .149.168.23.28.137l7.086-5.885a.169.169 0 0 1 .224.007L23 43.471M26.265 33v9.283m7.343-25.552c0 7.828-6.18 14.173-13.804 14.173C12.18 30.904 6 24.559 6 16.732 6 8.904 12.18 2.559 19.804 2.559c7.624 0 13.804 6.345 13.804 14.172ZM21.9 12.672l4.83-.425c.532-.047.81.617.402.944-1.785 1.435-3.799 3.357-3.4 4.229.649 1.412 2.917 6.592 1.459 6.435-1.458-.157-5.022-4.081-5.994-3.453-.972.628-4.86 5.336-5.67 3.453-.81-1.884 2.916-5.18 1.62-6.435-1.296-1.256-5.022-3.296-2.754-3.767 1.55-.322 3.209-.438 4.131-.465a.544.544 0 0 0 .512-.376c.64-2.144 1.913-5.524 2.647-4.339.677 1.095 1.323 2.825 1.656 3.84.075.23.309.382.561.36Z"/></svg>