<svg xmlns="http://www.w3.org/2000/svg" width="32" height="32" fill="none"><path fill="#000" d="m29.464 13.895.5-.023-.5.023ZM5.7 6.723l-.39-.313.39.313ZM1.842 22.21l-.484.126.484-.126Zm27.143-11.917-.487.114.487-.114Zm-1.36-3.569-.435.246.435-.246Zm1.093 15.83-.45-.219.45.218Zm-17.788 7.81.078-.493-.078.493Zm18.876-9.81-.462-.191.462.192ZM12.61 10.132a.5.5 0 0 0 .679.734l-.679-.734Zm3.18 4.832-.296-.403a.5.5 0 0 0 .16.884l.136-.481Zm3.794 5.455-.443-.232.443.232Zm-7.7.901a.5.5 0 1 0-.386.923l.385-.923Zm2.166 9.07.074.495c.329-.05 4.426-.598 8.37-2.97 3.97-2.389 7.8-6.642 7.47-14.042l-.5.023-.5.022c.311 6.943-3.246 10.89-6.985 13.14-3.764 2.264-7.694 2.792-8.002 2.837l.073.495ZM5.701 6.723l-.39-.313C3.426 8.752-.602 14.777 1.359 22.335l.484-.126.484-.125C.488 15.002 4.257 9.313 6.091 7.037l-.39-.314Zm23.763 7.172.5-.023a20.055 20.055 0 0 0-.492-3.695l-.487.115-.487.114c.248 1.053.409 2.221.466 3.511l.5-.022Zm-.479-3.603.487-.115c-.33-1.402-.809-2.632-1.411-3.7l-.436.246-.435.246c.552.978.998 2.118 1.308 3.437l.487-.114Zm-1.36-3.569.436-.245C25.572 2.07 21.059.552 16.629.875c-4.413.322-8.847 2.471-11.317 5.535l.39.313.388.314c2.271-2.816 6.432-4.86 10.612-5.164 4.163-.304 8.242 1.119 10.488 5.096l.435-.246Zm1.36 3.569-.47.17c1.125 3.115 1.695 7.864-.247 11.872l.45.218.45.218c2.1-4.336 1.465-9.385.287-12.648l-.47.17Zm-.267 12.26-.45-.218c-1.824 3.766-5.93 7.006-14.25 7.556l.032.499.033.499c8.581-.567 13.065-3.948 15.085-8.118l-.45-.218ZM1.842 22.21l-.484.126c1.247 4.804 5.288 7.856 9.494 8.522l.078-.494.078-.493c-3.86-.612-7.546-3.412-8.682-7.786l-.484.125Zm9.088 8.154-.078.494c1.09.173 2.196.186 3.272.027l-.074-.495-.073-.495a9.8 9.8 0 0 1-2.969-.024l-.078.493Zm16.695-23.64-.407.29c.867 1.218 1.942 3.274 2.525 5.677.583 2.401.666 5.112-.4 7.672l.463.192.461.192c1.17-2.814 1.064-5.754.448-8.292-.616-2.536-1.748-4.708-2.683-6.02l-.407.29Zm2.18 13.83-.461-.191a10.48 10.48 0 0 1-1.038 1.908l.412.282.412.283c.467-.68.843-1.38 1.137-2.09l-.461-.191Zm-18.875 9.81-.086.493c2.727.474 6.96.544 10.825-.8 3.887-1.351 7.426-4.148 8.624-9.39l-.487-.112-.488-.111c-1.104 4.83-4.335 7.402-7.978 8.67-3.664 1.273-7.718 1.211-10.324.758l-.086.492Zm2.02-19.865.339.367c.969-.895 2.85-1.635 5.103-.73l.186-.464.186-.464c-2.647-1.064-4.932-.205-6.154.924l.34.367Zm5.628-.827-.186.464c.513.206.61.428.626.58.023.215-.084.551-.416 1.014-.65.907-1.9 1.943-3.108 2.83l.296.404.296.403c1.208-.887 2.577-2.005 3.33-3.054.369-.516.659-1.109.597-1.7-.069-.656-.537-1.12-1.249-1.405l-.186.464Zm-2.788 5.292-.137.48c1.198.34 2.356 1.072 3.062 1.962.698.88.916 1.848.426 2.78l.443.233.442.233c.729-1.387.334-2.782-.527-3.867-.854-1.076-2.202-1.913-3.573-2.302l-.136.48Zm3.794 5.455-.443-.232c-.62 1.18-1.542 1.804-2.725 1.982-1.214.182-2.742-.102-4.533-.849l-.192.462-.193.461c1.872.78 3.597 1.135 5.066.915 1.502-.226 2.695-1.047 3.462-2.506l-.442-.233Z"/></svg>