<svg xmlns="http://www.w3.org/2000/svg" width="32" height="32" fill="none"><path fill="#000" d="m29.464 13.895.5-.023-.5.023ZM5.7 6.723l-.39-.313.39.313ZM1.842 22.21l-.484.126.484-.126Zm27.143-11.917-.487.114.487-.114Zm-1.36-3.569-.435.246.435-.246Zm1.093 15.83-.45-.219.45.218Zm-17.788 7.81.078-.493-.078.493Zm18.876-9.81-.462-.191.462.192ZM12.5 10.952a.5.5 0 0 0 .8.6l-.8-.6Zm4.4 2.967-.438-.24.439.24Zm2.6 7.886a.5.5 0 1 0-.337-.941l.338.941Zm-5.45 8.585.073.495c.329-.05 4.426-.598 8.37-2.97 3.97-2.389 7.8-6.642 7.47-14.042l-.5.023-.5.022c.311 6.943-3.246 10.89-6.985 13.14-3.764 2.264-7.694 2.792-8.002 2.837l.073.495ZM5.7 6.723l-.39-.313C3.426 8.752-.602 14.777 1.359 22.335l.484-.126.484-.125C.488 15.002 4.257 9.313 6.091 7.037l-.39-.314Zm23.763 7.172.5-.023a20.055 20.055 0 0 0-.492-3.695l-.487.115-.487.114c.248 1.053.409 2.221.466 3.511l.5-.022Zm-.479-3.603.487-.115c-.33-1.402-.809-2.632-1.411-3.7l-.436.246-.435.246c.552.978.998 2.118 1.308 3.437l.487-.114Zm-1.36-3.569.436-.245C25.572 2.07 21.059.552 16.629.875c-4.413.322-8.847 2.471-11.317 5.535l.39.313.388.314c2.271-2.816 6.432-4.86 10.612-5.164 4.163-.304 8.242 1.119 10.488 5.096l.435-.246Zm1.36 3.569-.47.17c1.125 3.115 1.695 7.864-.247 11.872l.45.218.45.218c2.1-4.336 1.465-9.385.287-12.648l-.47.17Zm-.267 12.26-.45-.218c-1.824 3.766-5.93 7.006-14.25 7.556l.032.499.033.499c8.581-.567 13.065-3.948 15.085-8.118l-.45-.218ZM1.842 22.21l-.484.126c1.247 4.804 5.288 7.856 9.494 8.522l.078-.494.078-.493c-3.86-.612-7.546-3.412-8.682-7.786l-.484.125Zm9.088 8.154-.078.494c1.09.173 2.196.186 3.272.027l-.074-.495-.073-.495a9.8 9.8 0 0 1-2.969-.024l-.078.493Zm16.695-23.64-.407.29c.867 1.218 1.942 3.274 2.525 5.677.583 2.401.666 5.112-.4 7.672l.463.192.461.192c1.17-2.814 1.064-5.754.448-8.292-.616-2.536-1.748-4.708-2.683-6.02l-.407.29Zm2.18 13.83-.461-.191a10.48 10.48 0 0 1-1.038 1.908l.412.282.412.283c.467-.68.843-1.38 1.137-2.09l-.461-.191Zm-18.875 9.81-.086.493c2.727.474 6.96.544 10.825-.8 3.887-1.351 7.426-4.148 8.624-9.39l-.487-.112-.488-.111c-1.104 4.83-4.335 7.402-7.978 8.67-3.664 1.273-7.718 1.211-10.324.758l-.086.492Zm1.971-19.112.4.3a4.64 4.64 0 0 1 1.73-1.38c.662-.307 1.28-.398 1.708-.3a.839.839 0 0 1 .456.252c.102.116.189.295.215.575.055.583-.163 1.542-.947 2.98l.439.24.439.24c.815-1.496 1.148-2.67 1.065-3.554-.043-.453-.196-.841-.461-1.142-.265-.3-.61-.479-.98-.565-.724-.167-1.58.008-2.355.367a5.64 5.64 0 0 0-2.109 1.687l.4.3Zm4 2.667-.438-.24a37.761 37.761 0 0 1-2.737 4.288c-.4.547-.748 1.001-1.05 1.408-.293.395-.544.746-.714 1.048-.157.278-.313.623-.26.972.063.426.388.655.709.774.312.115.73.173 1.228.206.509.033 1.149.044 1.93.044v-1c-.778 0-1.39-.01-1.864-.042-.485-.032-.78-.084-.948-.146-.158-.058-.08-.074-.066.016.001.013-.007-.069.141-.332.136-.24.352-.546.648-.944.288-.388.653-.866 1.053-1.413a38.763 38.763 0 0 0 2.808-4.4l-.44-.24Zm-1.332 8v.5a13.321 13.321 0 0 0 3.617-.514 7.808 7.808 0 0 0 .29-.091l.018-.006a.087.087 0 0 1 .006-.002h.001l-.168-.472-.168-.47h-.002l-.011.004c-.01.003-.027.01-.049.016a10.86 10.86 0 0 1-.958.254c-.65.14-1.554.28-2.576.28v.5Z"/></svg>