<svg xmlns="http://www.w3.org/2000/svg" version="1.1" viewBox="-5.0 40.0 110.0 20.0">
 <path fill="white" d="m95.895 50.016c-0.80859-0.60156-1.5586-1.2188-2.2266-1.832-2.4414-2.2383-6.2656-2.2383-8.707 0-0.66797 0.61328-1.4219 1.2305-2.2344 1.8359-0.85937 0.64062-1.6953 0.63672-2.5547 0-0.8125-0.60547-1.5625-1.2227-2.2344-1.8359-2.4414-2.2383-6.2656-2.2383-8.7031 0-0.67188 0.61719-1.4219 1.2344-2.2305 1.832-0.85938 0.64062-1.6992 0.64062-2.5586 0-0.8125-0.60547-1.5625-1.2227-2.2305-1.832-2.4414-2.2383-6.2656-2.2383-8.707 0-0.66797 0.61328-1.418 1.2266-2.2305 1.832-0.85938 0.64062-1.6992 0.64062-2.5586 0-0.8125-0.60156-1.5625-1.2188-2.2305-1.832-2.4414-2.2383-6.2656-2.2383-8.707 0-0.67188 0.61328-1.4219 1.2305-2.2305 1.832-0.85938 0.64062-1.6992 0.64062-2.5586 0-0.8125-0.60156-1.5625-1.2188-2.2305-1.832-2.4727-2.2656-6.2422-2.2422-8.7734 0.058594-0.42969 0.39062-0.85938 0.75391-1.2773 1.0859-1.2578 1.0078-3.0781 1.0039-4.3359 0-0.41406-0.33203-0.84766-0.69531-1.2773-1.0859-2.5273-2.3008-6.3008-2.3281-8.7734-0.058594-0.66797 0.61328-1.418 1.2266-2.2266 1.832-0.66406 0.49219-0.80469 1.4336-0.30859 2.0977 0.49609 0.66406 1.4336 0.80469 2.0977 0.30859 0.89062-0.66406 1.7227-1.3438 2.4648-2.0273 1.3203-1.2109 3.3555-1.1797 4.7266 0.066407 0.47656 0.43359 0.95703 0.83984 1.4219 1.2109 2.3438 1.875 5.7422 1.875 8.0859 0 0.46094-0.37109 0.94141-0.77344 1.418-1.2109 1.375-1.25 3.4062-1.2812 4.7266-0.066407 0.74219 0.67969 1.5742 1.3633 2.4648 2.0273 1.9219 1.4258 4.2148 1.4297 6.1367 0 0.89062-0.66406 1.7227-1.3438 2.4688-2.0273 1.3047-1.1953 3.3477-1.1953 4.6523 0 0.74219 0.67969 1.5742 1.3633 2.4688 2.0273 1.9219 1.4258 4.2148 1.4258 6.1406 0 0.89453-0.66406 1.7227-1.3477 2.4688-2.0273 1.3047-1.1953 3.3477-1.1953 4.6523 0 0.74219 0.67969 1.5703 1.3633 2.4688 2.0273 1.9219 1.4258 4.2148 1.4297 6.1406 0 0.89062-0.66016 1.7188-1.3438 2.4688-2.0273 1.3047-1.1953 3.3477-1.1953 4.6523 0 0.74609 0.68359 1.5781 1.3672 2.4688 2.0312 0.96094 0.71484 2.0117 1.0703 3.0664 1.0703 1.0547 0 2.1055-0.35547 3.0664-1.0703 0.89453-0.66406 1.7266-1.3477 2.4688-2.0312 1.3047-1.1953 3.3438-1.1953 4.6523 0 0.74609 0.68359 1.5781 1.3672 2.4648 2.0273 0.66406 0.49609 1.6055 0.35938 2.0977-0.30859 0.5-0.66406 0.35938-1.6016-0.30469-2.0977z"/></svg>