<?xml version="1.0" encoding="UTF-8"?>
<svg version="1.1" xmlns="http://www.w3.org/2000/svg" width="200" height="200">
<path d="M0 0 C1.32 0 2.64 0 4 0 C4 0.66 4 1.32 4 2 C4.99 2 5.98 2 7 2 C7 2.66 7 3.32 7 4 C8.65 4.33 10.3 4.66 12 5 C12 5.66 12 6.32 12 7 C14.97 7.495 14.97 7.495 18 8 C18 8.66 18 9.32 18 10 C19.65 10.33 21.3 10.66 23 11 C23 11.66 23 12.32 23 13 C23.99 13 24.98 13 26 13 C26 13.66 26 14.32 26 15 C27.65 15.33 29.3 15.66 31 16 C31 16.66 31 17.32 31 18 C32.2065625 17.9690625 32.2065625 17.9690625 33.4375 17.9375 C36 18 36 18 37 19 C37.08865208 21.8843382 37.11521296 24.74462158 37.09765625 27.62890625 C37.0962413 28.49313705 37.09482635 29.35736786 37.09336853 30.24778748 C37.08775239 33.01939292 37.07519719 35.7909188 37.0625 38.5625 C37.05748708 40.4368478 37.05292381 42.31119685 37.04882812 44.18554688 C37.03777772 48.79039544 37.0205023 53.39518421 37 58 C38.65 58.33 40.3 58.66 42 59 C42 59.66 42 60.32 42 61 C43.65 61.33 45.3 61.66 47 62 C47 62.66 47 63.32 47 64 C48.98 64.33 50.96 64.66 53 65 C53 65.66 53 66.32 53 67 C53.66 67 54.32 67 55 67 C55 67.66 55 68.32 55 69 C56.98 69.33 58.96 69.66 61 70 C61 70.66 61 71.32 61 72 C62.65 72.33 64.3 72.66 66 73 C66 73.66 66 74.32 66 75 C66.99 75 67.98 75 69 75 C69 88.53 69 102.06 69 116 C66.525 116.495 66.525 116.495 64 117 C63.67 117.99 63.34 118.98 63 120 C62.01 120 61.02 120 60 120 C60 120.66 60 121.32 60 122 C59.360625 122.12375 58.72125 122.2475 58.0625 122.375 C57.381875 122.58125 56.70125 122.7875 56 123 C55.67 123.66 55.34 124.32 55 125 C54.01 125 53.02 125 52 125 C52 125.66 52 126.32 52 127 C48.535 127.495 48.535 127.495 45 128 C44.67 128.99 44.34 129.98 44 131 C43.01 131 42.02 131 41 131 C41 131.66 41 132.32 41 133 C39.68 133 38.36 133 37 133 C37 133.66 37 134.32 37 135 C34.69 135 32.38 135 30 135 C29.67 133.68 29.34 132.36 29 131 C27.865625 130.87625 26.73125 130.7525 25.5625 130.625 C24.386875 130.41875 23.21125 130.2125 22 130 C21.67 129.34 21.34 128.68 21 128 C18.97536745 127.34786708 18.97536745 127.34786708 17 127 C17 126.34 17 125.68 17 125 C16.01 125 15.02 125 14 125 C14 124.34 14 123.68 14 123 C12.35 122.67 10.7 122.34 9 122 C9 121.34 9 120.68 9 120 C7.02 119.67 5.04 119.34 3 119 C3 118.34 3 117.68 3 117 C2.34 117 1.68 117 1 117 C1 117.66 1 118.32 1 119 C-2.465 119.495 -2.465 119.495 -6 120 C-6.495 121.485 -6.495 121.485 -7 123 C-7.99 123 -8.98 123 -10 123 C-10 123.66 -10 124.32 -10 125 C-11.134375 125.45375 -12.26875 125.9075 -13.4375 126.375 C-17.04721692 127.57095806 -17.04721692 127.57095806 -18 130 C-20.32156597 130.40729228 -22.6568787 130.74438677 -25 131 C-25.33 132.32 -25.66 133.64 -26 135 C-28.31 135 -30.62 135 -33 135 C-33 134.34 -33 133.68 -33 133 C-34.32 133 -35.64 133 -37 133 C-37 132.34 -37 131.68 -37 131 C-38.32 130.67 -39.64 130.34 -41 130 C-41 129.34 -41 128.68 -41 128 C-44.465 127.505 -44.465 127.505 -48 127 C-48 126.34 -48 125.68 -48 125 C-48.99 125 -49.98 125 -51 125 C-51.33 124.34 -51.66 123.68 -52 123 C-54.02463255 122.34786708 -54.02463255 122.34786708 -56 122 C-56 121.34 -56 120.68 -56 120 C-57.32 119.67 -58.64 119.34 -60 119 C-60 118.34 -60 117.68 -60 117 C-61.65 116.67 -63.3 116.34 -65 116 C-65 102.47 -65 88.94 -65 75 C-64.01 75 -63.02 75 -62 75 C-62 74.34 -62 73.68 -62 73 C-59.525 72.505 -59.525 72.505 -57 72 C-57 71.34 -57 70.68 -57 70 C-54.03 69.505 -54.03 69.505 -51 69 C-51 68.34 -51 67.68 -51 67 C-50.34 67 -49.68 67 -49 67 C-49 66.34 -49 65.68 -49 65 C-46.03 64.505 -46.03 64.505 -43 64 C-43 63.34 -43 62.68 -43 62 C-40.525 61.505 -40.525 61.505 -38 61 C-38 60.34 -38 59.68 -38 59 C-35.525 58.505 -35.525 58.505 -33 58 C-33.00523682 56.82381104 -33.01047363 55.64762207 -33.01586914 54.43579102 C-33.03391663 50.08797969 -33.04543108 45.7401717 -33.05493164 41.39233398 C-33.05997244 39.5075627 -33.06680498 37.62279535 -33.07543945 35.73803711 C-33.08751617 33.03498364 -33.09323068 30.33198169 -33.09765625 27.62890625 C-33.10281754 26.78099014 -33.10797882 25.93307404 -33.11329651 25.0594635 C-33.11349195 23.03928932 -33.06206211 21.01922066 -33 19 C-32 18 -32 18 -29.4375 17.9375 C-28.2309375 17.9684375 -28.2309375 17.9684375 -27 18 C-27 17.34 -27 16.68 -27 16 C-25.35 15.67 -23.7 15.34 -22 15 C-22 14.34 -22 13.68 -22 13 C-21.01 13 -20.02 13 -19 13 C-19 12.34 -19 11.68 -19 11 C-17.35 10.67 -15.7 10.34 -14 10 C-14 9.34 -14 8.68 -14 8 C-12.02 7.67 -10.04 7.34 -8 7 C-8 6.34 -8 5.68 -8 5 C-6.35 4.67 -4.7 4.34 -3 4 C-3 3.34 -3 2.68 -3 2 C-2.01 2 -1.02 2 0 2 C0 1.34 0 0.68 0 0 Z " fill="#0C0C0C" transform="translate(98,23)"/>
<path d="M0 0 C0.66 0.33 1.32 0.66 2 1 C2 1.66 2 2.32 2 3 C4.475 3.495 4.475 3.495 7 4 C7 3.01 7 2.02 7 1 C8.98 1.33 10.96 1.66 13 2 C13 2.66 13 3.32 13 4 C15.475 4.495 15.475 4.495 18 5 C18 5.66 18 6.32 18 7 C18.99 7 19.98 7 21 7 C21 7.66 21 8.32 21 9 C23.475 9.495 23.475 9.495 26 10 C26 10.66 26 11.32 26 12 C26.804375 11.979375 27.60875 11.95875 28.4375 11.9375 C31 12 31 12 32 13 C32.08865208 15.8843382 32.11521296 18.74462158 32.09765625 21.62890625 C32.0962413 22.49313705 32.09482635 23.35736786 32.09336853 24.24778748 C32.08775239 27.01939292 32.07519719 29.7909188 32.0625 32.5625 C32.05748708 34.4368478 32.05292381 36.31119685 32.04882812 38.18554688 C32.03777772 42.79039544 32.0205023 47.39518421 32 52 C33.65 52.33 35.3 52.66 37 53 C37 53.66 37 54.32 37 55 C38.65 55.33 40.3 55.66 42 56 C42 56.66 42 57.32 42 58 C43.98 58.33 45.96 58.66 48 59 C48 59.66 48 60.32 48 61 C48.66 61 49.32 61 50 61 C50 61.66 50 62.32 50 63 C51.98 63.33 53.96 63.66 56 64 C56 64.66 56 65.32 56 66 C57.65 66.33 59.3 66.66 61 67 C61 67.66 61 68.32 61 69 C61.99 69 62.98 69 64 69 C64 82.53 64 96.06 64 110 C62.35 110.33 60.7 110.66 59 111 C58.67 110.34 58.34 109.68 58 109 C56.68 109 55.36 109 54 109 C54 109.66 54 110.32 54 111 C52.73308493 111.67408308 51.46129251 112.33900497 50.1875 113 C49.47980469 113.37125 48.77210938 113.7425 48.04296875 114.125 C46 115 46 115 43 115 C43 115.66 43 116.32 43 117 C41.35 117.33 39.7 117.66 38 118 C38 118.66 38 119.32 38 120 C37.01 120 36.02 120 35 120 C35 120.66 35 121.32 35 122 C34.01 122 33.02 122 32 122 C32 111.44 32 100.88 32 90 C31.34 90 30.68 90 30 90 C30 100.89 30 111.78 30 123 C29.67 123 29.34 123 29 123 C29 112.77 29 102.54 29 92 C28.34 92 27.68 92 27 92 C27 102.23 27 112.46 27 123 C25.35 122.67 23.7 122.34 22 122 C22 121.34 22 120.68 22 120 C20.35 119.67 18.7 119.34 17 119 C17 118.34 17 117.68 17 117 C16.34 117 15.68 117 15 117 C15 116.34 15 115.68 15 115 C12.69 114.67 10.38 114.34 8 114 C8 113.34 8 112.68 8 112 C6.35 111.67 4.7 111.34 3 111 C2.67 110.01 2.34 109.02 2 108 C2.66 108 3.32 108 4 108 C4 107.34 4 106.68 4 106 C4.969375 105.54625 5.93875 105.0925 6.9375 104.625 C10.07079582 103.34213779 10.07079582 103.34213779 11 101 C8.36 101 5.72 101 3 101 C3 101.66 3 102.32 3 103 C2.01 103 1.02 103 0 103 C0 92.44 0 81.88 0 71 C0.66 71 1.32 71 2 71 C2 70.34 2 69.68 2 69 C4.97 68.505 4.97 68.505 8 68 C8 67.34 8 66.68 8 66 C10.90548882 63.95830515 12.40142046 63 16 63 C16 62.34 16 61.68 16 61 C18.475 60.505 18.475 60.505 21 60 C21 59.34 21 58.68 21 58 C23.97 57.505 23.97 57.505 27 57 C27 67.56 27 78.12 27 89 C27.66 89 28.32 89 29 89 C29 77.78 29 66.56 29 55 C27.68 55 26.36 55 25 55 C24.67 54.67 24.34 54.34 24 54 C22.32457024 54.28604898 20.65614657 54.61781233 19 55 C19 55.66 19 56.32 19 57 C16.03 57.495 16.03 57.495 13 58 C13 58.66 13 59.32 13 60 C10.525 60.495 10.525 60.495 8 61 C8 61.66 8 62.32 8 63 C5.03 63.495 5.03 63.495 2 64 C2 64.66 2 65.32 2 66 C1.34 66 0.68 66 0 66 C0 66.66 0 67.32 0 68 C-1.98 68 -3.96 68 -6 68 C-6 67.34 -6 66.68 -6 66 C-7.65 65.67 -9.3 65.34 -11 65 C-11 64.34 -11 63.68 -11 63 C-11.99 63 -12.98 63 -14 63 C-14 62.34 -14 61.68 -14 61 C-15.65 60.67 -17.3 60.34 -19 60 C-19 59.34 -19 58.68 -19 58 C-20.98 57.67 -22.96 57.34 -25 57 C-25 56.34 -25 55.68 -25 55 C-26.65 54.67 -28.3 54.34 -30 54 C-30 53.34 -30 52.68 -30 52 C-28.34467377 50.98133771 -26.67739862 49.98189187 -25 49 C-24.67 48.34 -24.34 47.68 -24 47 C-21.4375 46.375 -21.4375 46.375 -19 46 C-19 45.34 -19 44.68 -19 44 C-18.01 44 -17.02 44 -16 44 C-16 43.34 -16 42.68 -16 42 C-15.38511719 41.80664062 -14.77023438 41.61328125 -14.13671875 41.4140625 C-12.92435547 41.02347656 -12.92435547 41.02347656 -11.6875 40.625 C-10.48673828 40.24214844 -10.48673828 40.24214844 -9.26171875 39.8515625 C-6.77275472 39.01168189 -6.77275472 39.01168189 -4 37 C-2 37.3125 -2 37.3125 0 38 C1.485 38.495 1.485 38.495 3 39 C3 39.66 3 40.32 3 41 C4.0725 41.0825 5.145 41.165 6.25 41.25 C10 42 10 42 11.9375 44 C15.02781675 46.99667078 17.77109967 46.71807331 22 47 C21.67 46.34 21.34 45.68 21 45 C18.47266765 44.34444881 18.47266765 44.34444881 16 44 C16 43.34 16 42.68 16 42 C15.34 41.7525 14.68 41.505 14 41.25 C11.55537933 40.23140806 9.14663492 39.18753905 6.75 38.0625 C6.06421875 37.74410156 5.3784375 37.42570312 4.671875 37.09765625 C3 36 3 36 2 33 C2.495 32.01 2.495 32.01 3 31 C5.32156597 30.59270772 7.6568787 30.25561323 10 30 C10 29.34 10 28.68 10 28 C15.75 25 15.75 25 18 25 C18 24.34 18 23.68 18 23 C20.97 22.01 23.94 21.02 27 20 C27 29.66666667 27 39.33333333 27 49 C27.99 49.495 27.99 49.495 29 50 C29 39.44 29 28.88 29 18 C26.36 18.99 23.72 19.98 21 21 C20.505 19.515 20.505 19.515 20 18 C19.37351563 18.3609375 18.74703125 18.721875 18.1015625 19.09375 C17.28429687 19.5578125 16.46703125 20.021875 15.625 20.5 C14.81289062 20.9640625 14.00078125 21.428125 13.1640625 21.90625 C11 23 11 23 9 23 C9 23.66 9 24.32 9 25 C6.03 25.495 6.03 25.495 3 26 C2.67 27.32 2.34 28.64 2 30 C-4.625 31.125 -4.625 31.125 -8 30 C-8.6875 27.9375 -8.6875 27.9375 -9 26 C-10.134375 25.87625 -11.26875 25.7525 -12.4375 25.625 C-13.613125 25.41875 -14.78875 25.2125 -16 25 C-16.33 24.34 -16.66 23.68 -17 23 C-19.34038186 21.86897474 -19.34038186 21.86897474 -22.0625 20.875 C-22.98160156 20.52179687 -23.90070313 20.16859375 -24.84765625 19.8046875 C-25.55792969 19.53914063 -26.26820312 19.27359375 -27 19 C-27 18.34 -27 17.68 -27 17 C-27.99 17 -28.98 17 -30 17 C-30 16.01 -30 15.02 -30 14 C-29.01 14 -28.02 14 -27 14 C-27 13.34 -27 12.68 -27 12 C-25.35 11.67 -23.7 11.34 -22 11 C-22 10.34 -22 9.68 -22 9 C-19.09451118 6.95830515 -17.59857954 6 -14 6 C-14 5.34 -14 4.68 -14 4 C-12.02 3.67 -10.04 3.34 -8 3 C-8 2.34 -8 1.68 -8 1 C-5.26094655 -0.36952673 -3.02912668 -0.12621361 0 0 Z " fill="#070707" transform="translate(103,29)"/>
<path d="M0 0 C0.99 0.495 0.99 0.495 2 1 C1.67 1.66 1.34 2.32 1 3 C2.32 3 3.64 3 5 3 C5 14.22 5 25.44 5 37 C4.34 37 3.68 37 3 37 C3 26.44 3 15.88 3 5 C1.02 5.33 -0.96 5.66 -3 6 C-3 6.66 -3 7.32 -3 8 C-4.65 8.33 -6.3 8.66 -8 9 C-8 9.66 -8 10.32 -8 11 C-13.75 14 -13.75 14 -16 14 C-16 14.66 -16 15.32 -16 16 C-17.98 16.33 -19.96 16.66 -22 17 C-22 17.66 -22 18.32 -22 19 C-22.66 19 -23.32 19 -24 19 C-24 29.56 -24 40.12 -24 51 C-23.01 51 -22.02 51 -21 51 C-21 50.34 -21 49.68 -21 49 C-15.25 47.875 -15.25 47.875 -13 49 C-13.6875 50.9375 -13.6875 50.9375 -15 53 C-17.625 53.75 -17.625 53.75 -20 54 C-20.33 55.65 -20.66 57.3 -21 59 C-19.35 59.33 -17.7 59.66 -16 60 C-16 60.66 -16 61.32 -16 62 C-13.69 62.33 -11.38 62.66 -9 63 C-9 63.66 -9 64.32 -9 65 C-8.34 65 -7.68 65 -7 65 C-7 65.66 -7 66.32 -7 67 C-5.35 67.33 -3.7 67.66 -2 68 C-2 68.66 -2 69.32 -2 70 C-0.68 70 0.64 70 2 70 C2.33 60.1 2.66 50.2 3 40 C3.66 40 4.32 40 5 40 C5.495 39.01 5.495 39.01 6 38 C6.66 38 7.32 38 8 38 C8 48.56 8 59.12 8 70 C8.99 70 9.98 70 11 70 C11 69.34 11 68.68 11 68 C11.99 68 12.98 68 14 68 C14 67.34 14 66.68 14 66 C15.65 65.67 17.3 65.34 19 65 C19 64.34 19 63.68 19 63 C20.4562545 62.32880451 21.91507867 61.66318193 23.375 61 C24.18710938 60.62875 24.99921875 60.2575 25.8359375 59.875 C28 59 28 59 30 59 C30 58.34 30 57.68 30 57 C31.65 56.67 33.3 56.34 35 56 C35 57.65 35 59.3 35 61 C33.68 61.33 32.36 61.66 31 62 C31 62.66 31 63.32 31 64 C30.360625 64.12375 29.72125 64.2475 29.0625 64.375 C28.381875 64.58125 27.70125 64.7875 27 65 C26.67 65.66 26.34 66.32 26 67 C25.01 67 24.02 67 23 67 C23 67.66 23 68.32 23 69 C19.535 69.495 19.535 69.495 16 70 C15.505 71.485 15.505 71.485 15 73 C14.01 73 13.02 73 12 73 C12 73.66 12 74.32 12 75 C10.68 75 9.36 75 8 75 C8 75.66 8 76.32 8 77 C5.69 77 3.38 77 1 77 C0.67 75.68 0.34 74.36 0 73 C-1.134375 72.87625 -2.26875 72.7525 -3.4375 72.625 C-4.613125 72.41875 -5.78875 72.2125 -7 72 C-7.33 71.34 -7.66 70.68 -8 70 C-10.02463255 69.34786708 -10.02463255 69.34786708 -12 69 C-12 68.34 -12 67.68 -12 67 C-12.99 67 -13.98 67 -15 67 C-15 66.34 -15 65.68 -15 65 C-16.65 64.67 -18.3 64.34 -20 64 C-20 63.34 -20 62.68 -20 62 C-21.98 61.67 -23.96 61.34 -26 61 C-26 60.34 -26 59.68 -26 59 C-26.66 59 -27.32 59 -28 59 C-28 59.66 -28 60.32 -28 61 C-31.465 61.495 -31.465 61.495 -35 62 C-35.33 62.99 -35.66 63.98 -36 65 C-36.99 65 -37.98 65 -39 65 C-39 65.66 -39 66.32 -39 67 C-40.134375 67.45375 -41.26875 67.9075 -42.4375 68.375 C-46.04721692 69.57095806 -46.04721692 69.57095806 -47 72 C-49.32156597 72.40729228 -51.6568787 72.74438677 -54 73 C-54.495 74.98 -54.495 74.98 -55 77 C-57.31 77 -59.62 77 -62 77 C-62 76.34 -62 75.68 -62 75 C-63.32 75 -64.64 75 -66 75 C-66 74.34 -66 73.68 -66 73 C-67.32 72.67 -68.64 72.34 -70 72 C-70 71.34 -70 70.68 -70 70 C-73.465 69.505 -73.465 69.505 -77 69 C-77 68.34 -77 67.68 -77 67 C-77.99 67 -78.98 67 -80 67 C-80.33 66.34 -80.66 65.68 -81 65 C-83.02463255 64.34786708 -83.02463255 64.34786708 -85 64 C-85 63.34 -85 62.68 -85 62 C-86.32 61.67 -87.64 61.34 -89 61 C-89 59.35 -89 57.7 -89 56 C-85.20696275 57.00193437 -82.28463659 57.81024227 -79 60 C-79 60.66 -79 61.32 -79 62 C-78.1646875 62.185625 -78.1646875 62.185625 -77.3125 62.375 C-74.77885636 63.05976855 -72.42078968 63.99133763 -70 65 C-70 65.66 -70 66.32 -70 67 C-68.35 67.33 -66.7 67.66 -65 68 C-65 68.66 -65 69.32 -65 70 C-64.01 70 -63.02 70 -62 70 C-62 59.44 -62 48.88 -62 38 C-61.34 38 -60.68 38 -60 38 C-59.67 39.65 -59.34 41.3 -59 43 C-58.01 42.505 -58.01 42.505 -57 42 C-56.67 51.24 -56.34 60.48 -56 70 C-55.34 70 -54.68 70 -54 70 C-54 69.34 -54 68.68 -54 68 C-48.375 65 -48.375 65 -45 65 C-45 64.34 -45 63.68 -45 63 C-42.525 62.505 -42.525 62.505 -40 62 C-40 61.34 -40 60.68 -40 60 C-37.09451118 57.95830515 -35.59857954 57 -32 57 C-32.33 56.34 -32.66 55.68 -33 55 C-35.3140622 54.26924352 -37.64828869 53.59861742 -40 53 C-40.495 51.02 -40.495 51.02 -41 49 C-43.31 48.67 -45.62 48.34 -48 48 C-48 47.34 -48 46.68 -48 46 C-49.32 45.67 -50.64 45.34 -52 45 C-52 44.34 -52 43.68 -52 43 C-53.32 43 -54.64 43 -56 43 C-55.505 42.01 -55.505 42.01 -55 41 C-54.01 41.33 -53.02 41.66 -52 42 C-52 41.34 -52 40.68 -52 40 C-52.66 40 -53.32 40 -54 40 C-54 39.34 -54 38.68 -54 38 C-51.5625 38.8125 -51.5625 38.8125 -49 40 C-48.67 40.99 -48.34 41.98 -48 43 C-46.35 43.33 -44.7 43.66 -43 44 C-43 44.66 -43 45.32 -43 46 C-42.01 46 -41.02 46 -40 46 C-40 46.66 -40 47.32 -40 48 C-38.35 48.33 -36.7 48.66 -35 49 C-35 49.66 -35 50.32 -35 51 C-32.03 51.495 -32.03 51.495 -29 52 C-29 41.11 -29 30.22 -29 19 C-29.99 19 -30.98 19 -32 19 C-32 18.34 -32 17.68 -32 17 C-33.98 16.67 -35.96 16.34 -38 16 C-38 15.34 -38 14.68 -38 14 C-40.475 13.505 -40.475 13.505 -43 13 C-43 12.34 -43 11.68 -43 11 C-44.98 10.67 -46.96 10.34 -49 10 C-49 9.34 -49 8.68 -49 8 C-49.66 8 -50.32 8 -51 8 C-51 7.34 -51 6.68 -51 6 C-52.98 5.67 -54.96 5.34 -57 5 C-57 15.56 -57 26.12 -57 37 C-57.33 37 -57.66 37 -58 37 C-58 25.78 -58 14.56 -58 3 C-55.525 3.495 -55.525 3.495 -53 4 C-52.67 3.34 -52.34 2.68 -52 2 C-51.01 2.33 -50.02 2.66 -49 3 C-49 3.66 -49 4.32 -49 5 C-47.02 5.33 -45.04 5.66 -43 6 C-43 6.66 -43 7.32 -43 8 C-40.525 8.495 -40.525 8.495 -38 9 C-38 9.66 -38 10.32 -38 11 C-37.01 11 -36.02 11 -35 11 C-35 11.66 -35 12.32 -35 13 C-32.525 13.495 -32.525 13.495 -30 14 C-30 14.66 -30 15.32 -30 16 C-28.02 16 -26.04 16 -24 16 C-24 15.34 -24 14.68 -24 14 C-23.34 14 -22.68 14 -22 14 C-22 13.34 -22 12.68 -22 12 C-19.03 11.505 -19.03 11.505 -16 11 C-16 10.34 -16 9.68 -16 9 C-13.525 8.505 -13.525 8.505 -11 8 C-11 7.34 -11 6.68 -11 6 C-8.03 5.505 -8.03 5.505 -5 5 C-5 4.34 -5 3.68 -5 3 C-2.525 2.505 -2.525 2.505 0 2 C0 1.34 0 0.68 0 0 Z " fill="#1A1A1A" transform="translate(127,81)"/>
<path d="M0 0 C2.97 0.495 2.97 0.495 6 1 C6 1.66 6 2.32 6 3 C6.66 3 7.32 3 8 3 C8 3.66 8 4.32 8 5 C10.97 5.495 10.97 5.495 14 6 C14 6.66 14 7.32 14 8 C15.65 8.33 17.3 8.66 19 9 C19 9.66 19 10.32 19 11 C21.97 11.495 21.97 11.495 25 12 C25 12.66 25 13.32 25 14 C25.99 14 26.98 14 28 14 C28 24.89 28 35.78 28 47 C26.02 46.67 24.04 46.34 22 46 C22 45.34 22 44.68 22 44 C20.35 43.67 18.7 43.34 17 43 C17 42.34 17 41.68 17 41 C16.01 41 15.02 41 14 41 C14 40.34 14 39.68 14 39 C13.2575 38.9175 12.515 38.835 11.75 38.75 C8.43964342 37.84717548 7.35665351 36.43029893 5 34 C3.35 33.34 1.7 32.68 0 32 C0 21.44 0 10.88 0 0 Z " fill="#F7F7F7" transform="translate(70,86)"/>
<path d="M0 0 C0.66 0.33 1.32 0.66 2 1 C2 1.66 2 2.32 2 3 C3.98 3.33 5.96 3.66 8 4 C8 4.66 8 5.32 8 6 C10.475 6.495 10.475 6.495 13 7 C13 7.66 13 8.32 13 9 C13.99 9 14.98 9 16 9 C16 9.66 16 10.32 16 11 C17.423125 11.185625 17.423125 11.185625 18.875 11.375 C22 12 22 12 24 14 C24 14.99 24 15.98 24 17 C22.96875 17.433125 21.9375 17.86625 20.875 18.3125 C18.41715468 19.35945237 16.07393602 20.47176844 13.6875 21.6875 C11 23 11 23 9 23 C9 23.66 9 24.32 9 25 C6.03 25.495 6.03 25.495 3 26 C2.67 27.32 2.34 28.64 2 30 C-4.625 31.125 -4.625 31.125 -8 30 C-8.6875 27.9375 -8.6875 27.9375 -9 26 C-10.134375 25.87625 -11.26875 25.7525 -12.4375 25.625 C-13.613125 25.41875 -14.78875 25.2125 -16 25 C-16.33 24.34 -16.66 23.68 -17 23 C-19.34038186 21.86897474 -19.34038186 21.86897474 -22.0625 20.875 C-22.98160156 20.52179687 -23.90070313 20.16859375 -24.84765625 19.8046875 C-25.55792969 19.53914063 -26.26820312 19.27359375 -27 19 C-27 18.34 -27 17.68 -27 17 C-27.99 17 -28.98 17 -30 17 C-30 16.01 -30 15.02 -30 14 C-29.01 14 -28.02 14 -27 14 C-27 13.34 -27 12.68 -27 12 C-25.35 11.67 -23.7 11.34 -22 11 C-22 10.34 -22 9.68 -22 9 C-19.09451118 6.95830515 -17.59857954 6 -14 6 C-14 5.34 -14 4.68 -14 4 C-12.02 3.67 -10.04 3.34 -8 3 C-8 2.34 -8 1.68 -8 1 C-5.26094655 -0.36952673 -3.02912668 -0.12621361 0 0 Z " fill="#F6F6F6" transform="translate(103,29)"/>
<path d="M0 0 C0.66 0.226875 1.32 0.45375 2 0.6875 C2.99 1.0175 3.98 1.3475 5 1.6875 C5 2.3475 5 3.0075 5 3.6875 C6.0725 3.77 7.145 3.8525 8.25 3.9375 C12.55586161 4.79867232 13.01194469 5.69944469 16 8.6875 C19.26420359 10.21355397 22.60965622 11.47111712 26 12.6875 C26 14.0075 26 15.3275 26 16.6875 C24.35 17.0175 22.7 17.3475 21 17.6875 C21 18.3475 21 19.0075 21 19.6875 C18.03 20.1825 18.03 20.1825 15 20.6875 C15 21.3475 15 22.0075 15 22.6875 C13.35 23.0175 11.7 23.3475 10 23.6875 C10 24.3475 10 25.0075 10 25.6875 C7.03 26.1825 7.03 26.1825 4 26.6875 C4 27.3475 4 28.0075 4 28.6875 C3.34 28.6875 2.68 28.6875 2 28.6875 C2 29.3475 2 30.0075 2 30.6875 C0.02 30.6875 -1.96 30.6875 -4 30.6875 C-4 30.0275 -4 29.3675 -4 28.6875 C-5.65 28.3575 -7.3 28.0275 -9 27.6875 C-9 27.0275 -9 26.3675 -9 25.6875 C-9.99 25.6875 -10.98 25.6875 -12 25.6875 C-12 25.0275 -12 24.3675 -12 23.6875 C-13.65 23.3575 -15.3 23.0275 -17 22.6875 C-17 22.0275 -17 21.3675 -17 20.6875 C-18.98 20.3575 -20.96 20.0275 -23 19.6875 C-23 19.0275 -23 18.3675 -23 17.6875 C-24.65 17.3575 -26.3 17.0275 -28 16.6875 C-28 16.0275 -28 15.3675 -28 14.6875 C-26.34467377 13.66883771 -24.67739862 12.66939187 -23 11.6875 C-22.67 11.0275 -22.34 10.3675 -22 9.6875 C-19.4375 9.0625 -19.4375 9.0625 -17 8.6875 C-17 8.0275 -17 7.3675 -17 6.6875 C-16.01 6.6875 -15.02 6.6875 -14 6.6875 C-14 6.0275 -14 5.3675 -14 4.6875 C-13.38511719 4.49414062 -12.77023438 4.30078125 -12.13671875 4.1015625 C-11.32847656 3.84117188 -10.52023438 3.58078125 -9.6875 3.3125 C-8.88699219 3.05726562 -8.08648437 2.80203125 -7.26171875 2.5390625 C-0.36612299 -0.05720672 -0.36612299 -0.05720672 0 0 Z " fill="#F7F7F7" transform="translate(101,66.3125)"/>
<path d="M0 0 C0 10.89 0 21.78 0 33 C-0.99 33 -1.98 33 -3 33 C-3 33.66 -3 34.32 -3 35 C-5.64 35.66 -8.28 36.32 -11 37 C-11 37.99 -11 38.98 -11 40 C-13.97 40.495 -13.97 40.495 -17 41 C-17 41.66 -17 42.32 -17 43 C-20.465 43.495 -20.465 43.495 -24 44 C-24 44.66 -24 45.32 -24 46 C-24.99 46 -25.98 46 -27 46 C-27 35.44 -27 24.88 -27 14 C-26.34 14 -25.68 14 -25 14 C-25 13.34 -25 12.68 -25 12 C-23.02 11.67 -21.04 11.34 -19 11 C-19 10.34 -19 9.68 -19 9 C-16.09451118 6.95830515 -14.59857954 6 -11 6 C-11 5.34 -11 4.68 -11 4 C-9.35 3.67 -7.7 3.34 -6 3 C-6 2.34 -6 1.68 -6 1 C-3 0 -3 0 0 0 Z " fill="#F8F8F8" transform="translate(130,86)"/>
<path d="M0 0 C0 10.56 0 21.12 0 32 C-2.475 32.495 -2.475 32.495 -5 33 C-5 33.66 -5 34.32 -5 35 C-6.26691507 35.67408308 -7.53870749 36.33900497 -8.8125 37 C-9.52019531 37.37125 -10.22789062 37.7425 -10.95703125 38.125 C-13 39 -13 39 -16 39 C-16 39.66 -16 40.32 -16 41 C-18.475 41.495 -18.475 41.495 -21 42 C-21 42.66 -21 43.32 -21 44 C-21.99 44 -22.98 44 -24 44 C-24 44.66 -24 45.32 -24 46 C-24.99 46 -25.98 46 -27 46 C-27 35.44 -27 24.88 -27 14 C-26.01 13.67 -25.02 13.34 -24 13 C-24 12.34 -24 11.68 -24 11 C-23.01 11 -22.02 11 -21 11 C-21 10.34 -21 9.68 -21 9 C-17.535 8.505 -17.535 8.505 -14 8 C-14 7.34 -14 6.68 -14 6 C-13.05125 5.9175 -12.1025 5.835 -11.125 5.75 C-10.09375 5.5025 -9.0625 5.255 -8 5 C-6.77472052 3.04978917 -6.77472052 3.04978917 -6 1 C-3 0 -3 0 0 0 Z " fill="#FAFAFA" transform="translate(162,105)"/>
<path d="M0 0 C4.11704694 0.72241198 7.30487372 2.02353711 11 4 C11 4.66 11 5.32 11 6 C11.99 6 12.98 6 14 6 C14 6.66 14 7.32 14 8 C15.65 8.33 17.3 8.66 19 9 C19 9.66 19 10.32 19 11 C19.763125 11.12375 20.52625 11.2475 21.3125 11.375 C24 12 24 12 27 14 C27.26727014 16.48340903 27.34866334 18.71472068 27.29296875 21.1953125 C27.28872391 21.90275604 27.28447906 22.61019958 27.28010559 23.33908081 C27.26329547 25.60143905 27.22564128 27.86291048 27.1875 30.125 C27.17245607 31.65753923 27.15876716 33.1900924 27.14648438 34.72265625 C27.11338462 38.48211318 27.06158825 42.24090618 27 46 C26.01 46 25.02 46 24 46 C24 45.34 24 44.68 24 44 C22.35 43.67 20.7 43.34 19 43 C19 42.34 19 41.68 19 41 C17.88625 40.814375 17.88625 40.814375 16.75 40.625 C14.19858515 40.04513299 12.2732427 39.26291261 10 38 C10 37.34 10 36.68 10 36 C9.36191406 35.79503906 8.72382812 35.59007812 8.06640625 35.37890625 C7.24011719 35.10949219 6.41382813 34.84007812 5.5625 34.5625 C4.73878906 34.29566406 3.91507813 34.02882812 3.06640625 33.75390625 C1 33 1 33 0 32 C-0.0883967 29.6243148 -0.11530305 27.27791326 -0.09765625 24.90234375 C-0.0962413 24.19348526 -0.09482635 23.48462677 -0.09336853 22.75428772 C-0.08775443 20.48198288 -0.07519963 18.20977525 -0.0625 15.9375 C-0.05748681 14.40039204 -0.05292359 12.86328255 -0.04882812 11.32617188 C-0.03778042 7.55074358 -0.02050641 3.77538829 0 0 Z " fill="#FBFBFB" transform="translate(38,105)"/>
<path d="M0 0 C0.66 0.99 1.32 1.98 2 3 C2.598125 2.67 3.19625 2.34 3.8125 2 C6 1 6 1 9 1 C9 11.56 9 22.12 9 33 C7.68 32.67 6.36 32.34 5 32 C5.33 31.34 5.66 30.68 6 30 C6.08510205 28.0406396 6.10717656 26.07837206 6.09765625 24.1171875 C6.09443359 22.95058594 6.09121094 21.78398438 6.08789062 20.58203125 C6.07951172 19.35871094 6.07113281 18.13539062 6.0625 16.875 C6.05798828 15.64394531 6.05347656 14.41289063 6.04882812 13.14453125 C6.0370133 10.09630608 6.02054028 7.04817686 6 4 C3.36 4.66 0.72 5.32 -2 6 C-2 6.66 -2 7.32 -2 8 C-4.90548882 10.04169485 -6.40142046 11 -10 11 C-10 11.66 -10 12.32 -10 13 C-12.31 13.33 -14.62 13.66 -17 14 C-17 15.65 -17 17.3 -17 19 C-16.43796875 19.11214844 -15.8759375 19.22429687 -15.296875 19.33984375 C-12.68486892 20.09057339 -10.60528678 21.21167376 -8.25 22.5625 C-7.45078125 23.01753906 -6.6515625 23.47257812 -5.828125 23.94140625 C-5.22484375 24.29074219 -4.6215625 24.64007813 -4 25 C-4 25.66 -4 26.32 -4 27 C-2.35 27 -0.7 27 1 27 C1.495 28.485 1.495 28.485 2 30 C-5.33333333 30.36666667 -5.33333333 30.36666667 -8.5 28.625 C-10 27 -10 27 -10 25 C-12.31 24.67 -14.62 24.34 -17 24 C-17 23.34 -17 22.68 -17 22 C-21.90226061 20.83491576 -21.90226061 20.83491576 -26.5 22.375 C-27.325 22.91125 -28.15 23.4475 -29 24 C-32.8125 24.6875 -32.8125 24.6875 -36 25 C-36 25.66 -36 26.32 -36 27 C-36.99 27 -37.98 27 -39 27 C-39 27.66 -39 28.32 -39 29 C-39.78375 29.0825 -40.5675 29.165 -41.375 29.25 C-42.24125 29.4975 -43.1075 29.745 -44 30 C-44.69937532 31.31647119 -45.36729133 32.65022151 -46 34 C-48.125 34.75 -48.125 34.75 -50 35 C-50 34.34 -50 33.68 -50 33 C-49.34 33 -48.68 33 -48 33 C-48 32.34 -48 31.68 -48 31 C-49.32 31.33 -50.64 31.66 -52 32 C-52 31.34 -52 30.68 -52 30 C-49.09451118 27.95830515 -47.59857954 27 -44 27 C-44 26.34 -44 25.68 -44 25 C-42.43880578 24.20576139 -40.87598036 23.41472877 -39.3125 22.625 C-38.44238281 22.18414062 -37.57226562 21.74328125 -36.67578125 21.2890625 C-34 20 -34 20 -31.23046875 18.9609375 C-28.83875619 18.21458745 -28.83875619 18.21458745 -28 16 C-28.99 16 -29.98 16 -31 16 C-31 15.34 -31 14.68 -31 14 C-33.475 13.505 -33.475 13.505 -36 13 C-36 12.34 -36 11.68 -36 11 C-37.65 10.67 -39.3 10.34 -41 10 C-41 9.34 -41 8.68 -41 8 C-41.556875 7.87625 -42.11375 7.7525 -42.6875 7.625 C-45.22114364 6.94023145 -47.57921032 6.00866237 -50 5 C-50 4.34 -50 3.68 -50 3 C-45.78892722 1.73667817 -43.4543291 1.99558044 -39.625 3.9375 C-38.40811576 4.60974879 -37.1966397 5.29234251 -36 6 C-36 6.66 -36 7.32 -36 8 C-33.69 8.33 -31.38 8.66 -29 9 C-28.67 10.32 -28.34 11.64 -28 13 C-24.7 13 -21.4 13 -18 13 C-17.67 11.68 -17.34 10.36 -17 9 C-15.02 8.67 -13.04 8.34 -11 8 C-11 7.34 -11 6.68 -11 6 C-10.18595703 5.60167969 -10.18595703 5.60167969 -9.35546875 5.1953125 C-8.64003906 4.84210937 -7.92460938 4.48890625 -7.1875 4.125 C-6.47980469 3.77695312 -5.77210937 3.42890625 -5.04296875 3.0703125 C-2.78753582 1.9343514 -2.78753582 1.9343514 0 0 Z " fill="#383838" transform="translate(123,46)"/>
<path d="M0 0 C0 9.9 0 19.8 0 30 C-1.65 29.67 -3.3 29.34 -5 29 C-5 28.34 -5 27.68 -5 27 C-6.65 26.67 -8.3 26.34 -10 26 C-10 25.34 -10 24.68 -10 24 C-10.66 24 -11.32 24 -12 24 C-12 23.34 -12 22.68 -12 22 C-14.31 21.67 -16.62 21.34 -19 21 C-19 20.34 -19 19.68 -19 19 C-20.65 18.67 -22.3 18.34 -24 18 C-24.33 17.01 -24.66 16.02 -25 15 C-24.34 15 -23.68 15 -23 15 C-23 14.34 -23 13.68 -23 13 C-22.030625 12.54625 -21.06125 12.0925 -20.0625 11.625 C-16.92920418 10.34213779 -16.92920418 10.34213779 -16 8 C-15.01 8 -14.02 8 -13 8 C-13 7.34 -13 6.68 -13 6 C-11.35 5.67 -9.7 5.34 -8 5 C-8 4.34 -8 3.68 -8 3 C-1.125 0 -1.125 0 0 0 Z " fill="#F1F1F1" transform="translate(130,122)"/>
<path d="M0 0 C0 9.24 0 18.48 0 28 C-1.65 27.67 -3.3 27.34 -5 27 C-5.33 26.34 -5.66 25.68 -6 25 C-8.52733235 24.34444881 -8.52733235 24.34444881 -11 24 C-11 23.34 -11 22.68 -11 22 C-11.66 21.7525 -12.32 21.505 -13 21.25 C-15.44462067 20.23140806 -17.85336508 19.18753905 -20.25 18.0625 C-21.27867188 17.58490234 -21.27867188 17.58490234 -22.328125 17.09765625 C-24 16 -24 16 -25 13 C-24.67 12.34 -24.34 11.68 -24 11 C-21.67843403 10.59270772 -19.3431213 10.25561323 -17 10 C-17 9.34 -17 8.68 -17 8 C-11.25 5 -11.25 5 -9 5 C-9 4.34 -9 3.68 -9 3 C-7.68825887 2.4980125 -6.37558403 1.99846423 -5.0625 1.5 C-4.33160156 1.2215625 -3.60070312 0.943125 -2.84765625 0.65625 C-1 0 -1 0 0 0 Z " fill="#F6F6F6" transform="translate(130,49)"/>
<path d="M0 0 C0.33 0.66 0.66 1.32 1 2 C2.32 2 3.64 2 5 2 C5.33 2.66 5.66 3.32 6 4 C6.99 4.33 7.98 4.66 9 5 C9 5.66 9 6.32 9 7 C11.31 7.33 13.62 7.66 16 8 C16.33 9.32 16.66 10.64 17 12 C19.31 12.33 21.62 12.66 24 13 C24.33 13.99 24.66 14.98 25 16 C20.375 19 20.375 19 17 19 C17 19.66 17 20.32 17 21 C15.35 21.33 13.7 21.66 12 22 C12 22.66 12 23.32 12 24 C6.375 27 6.375 27 3 27 C3 27.66 3 28.32 3 29 C2.01 29.33 1.02 29.66 0 30 C0 20.1 0 10.2 0 0 Z " fill="#FAFAFA" transform="translate(70,122)"/>
<path d="M0 0 C0.33 0.66 0.66 1.32 1 2 C3.32495277 2.38749213 5.6599583 2.71758117 8 3 C8.99 3.33 9.98 3.66 11 4 C11 4.66 11 5.32 11 6 C11.66 6 12.32 6 13 6 C13 6.66 13 7.32 13 8 C15.97 8.495 15.97 8.495 19 9 C19 9.66 19 10.32 19 11 C20.32 11.33 21.64 11.66 23 12 C22.6875 13.9375 22.6875 13.9375 22 16 C21.01 16.33 20.02 16.66 19 17 C19 17.66 19 18.32 19 19 C17.02 19.33 15.04 19.66 13 20 C13 20.66 13 21.32 13 22 C10.09451118 24.04169485 8.59857954 25 5 25 C5 25.66 5 26.32 5 27 C3.35 27.33 1.7 27.66 0 28 C0 18.76 0 9.52 0 0 Z " fill="#F3F3F3" transform="translate(135,86)"/>
<path d="M0 0 C0.99 0.33 1.98 0.66 3 1 C3 1.66 3 2.32 3 3 C4.11375 3.185625 4.11375 3.185625 5.25 3.375 C7.80141485 3.95486701 9.7267573 4.73708739 12 6 C12 6.66 12 7.32 12 8 C13.65 8.33 15.3 8.66 17 9 C17 9.66 17 10.32 17 11 C19.475 11.495 19.475 11.495 22 12 C22 12.66 22 13.32 22 14 C22.99 14 23.98 14 25 14 C24.67 14.99 24.34 15.98 24 17 C22.29875511 17.78518995 20.59098761 18.56158472 18.84375 19.23828125 C16.78638129 20.03143494 16.78638129 20.03143494 14.25 21.6875 C12 23 12 23 9 23 C9 23.66 9 24.32 9 25 C6.09451118 27.04169485 4.59857954 28 1 28 C0.67 28.66 0.34 29.32 0 30 C0 20.1 0 10.2 0 0 Z " fill="#FAFAFA" transform="translate(70,48)"/>
<path d="M0 0 C0 8.91 0 17.82 0 27 C-2.64 26.34 -5.28 25.68 -8 25 C-8 24.34 -8 23.68 -8 23 C-9.65 22.67 -11.3 22.34 -13 22 C-13 21.34 -13 20.68 -13 20 C-14.98 19.67 -16.96 19.34 -19 19 C-19 18.34 -19 17.68 -19 17 C-20.65 16.67 -22.3 16.34 -24 16 C-24 14.68 -24 13.36 -24 12 C-22.35 11.67 -20.7 11.34 -19 11 C-19 10.34 -19 9.68 -19 9 C-18.01 9 -17.02 9 -16 9 C-16 8.34 -16 7.68 -16 7 C-14.35 6.67 -12.7 6.34 -11 6 C-11 5.34 -11 4.68 -11 4 C-9.35500958 3.33125616 -7.70898352 2.66505926 -6.0625 2 C-5.14597656 1.62875 -4.22945312 1.2575 -3.28515625 0.875 C-1 0 -1 0 0 0 Z " fill="#F3F3F3" transform="translate(65,86)"/>
<path d="M0 0 C2.475 0.99 2.475 0.99 5 2 C5.99 2.33 6.98 2.66 8 3 C7.67 3.66 7.34 4.32 7 5 C5.68 4.67 4.36 4.34 3 4 C2.67 12.58 2.34 21.16 2 30 C3.65 29.67 5.3 29.34 7 29 C7 28.34 7 27.68 7 27 C12.75 24 12.75 24 15 24 C15 23.34 15 22.68 15 22 C16.98 21.67 18.96 21.34 21 21 C21 20.34 21 19.68 21 19 C21.99 18.34 22.98 17.68 24 17 C24.33 16.01 24.66 15.02 25 14 C25.66 14 26.32 14 27 14 C26.67 15.65 26.34 17.3 26 19 C27.65 19 29.3 19 31 19 C31 30.22 31 41.44 31 53 C30.34 53 29.68 53 29 53 C29 42.44 29 31.88 29 21 C22.22510108 23.01151263 22.22510108 23.01151263 21 26 C17.9375 26.625 17.9375 26.625 15 27 C15 27.66 15 28.32 15 29 C12.69 29.33 10.38 29.66 8 30 C8 30.66 8 31.32 8 32 C7.01 32 6.02 32 5 32 C5 32.66 5 33.32 5 34 C3.515 34.495 3.515 34.495 2 35 C2 34.01 2 33.02 2 32 C1.34 32 0.68 32 0 32 C0 21.44 0 10.88 0 0 Z " fill="#131313" transform="translate(133,84)"/>
<path d="M0 0 C0 10.56 0 21.12 0 32 C-1.65 31.67 -3.3 31.34 -5 31 C-5.33 31.66 -5.66 32.32 -6 33 C-7.32 32.67 -8.64 32.34 -10 32 C-10 31.34 -10 30.68 -10 30 C-11.65 29.67 -13.3 29.34 -15 29 C-15 28.34 -15 27.68 -15 27 C-15.99 27 -16.98 27 -18 27 C-18 26.34 -18 25.68 -18 25 C-18.886875 24.71125 -19.77375 24.4225 -20.6875 24.125 C-23.49042733 23.17306241 -26.25155423 22.09937831 -29 21 C-29 31.23 -29 41.46 -29 52 C-29.33 52 -29.66 52 -30 52 C-30 41.11 -30 30.22 -30 19 C-29.01 19 -28.02 19 -27 19 C-27 17.35 -27 15.7 -27 14 C-26.67 15.32 -26.34 16.64 -26 18 C-24.35 18.33 -22.7 18.66 -21 19 C-21 19.66 -21 20.32 -21 21 C-19.02 21.33 -17.04 21.66 -15 22 C-15 22.66 -15 23.32 -15 24 C-13.35 24.33 -11.7 24.66 -10 25 C-10 25.66 -10 26.32 -10 27 C-7.69 27.33 -5.38 27.66 -3 28 C-3 19.75 -3 11.5 -3 3 C-4.65 3.66 -6.3 4.32 -8 5 C-8 4.34 -8 3.68 -8 3 C-2.25 0 -2.25 0 0 0 Z " fill="#4D4D4D" transform="translate(67,84)"/>
<path d="M0 0 C1.32 0 2.64 0 4 0 C4 0.66 4 1.32 4 2 C4.99 2 5.98 2 7 2 C7 2.66 7 3.32 7 4 C9.475 4.495 9.475 4.495 12 5 C12 6.65 12 8.3 12 10 C9.525 9.505 9.525 9.505 7 9 C7 8.34 7 7.68 7 7 C3.7 7 0.4 7 -3 7 C-3 7.66 -3 8.32 -3 9 C-4.98 9.33 -6.96 9.66 -9 10 C-9 10.66 -9 11.32 -9 12 C-14.75 15 -14.75 15 -17 15 C-17 15.66 -17 16.32 -17 17 C-18.65 17.33 -20.3 17.66 -22 18 C-22 18.66 -22 19.32 -22 20 C-22.99 20 -23.98 20 -25 20 C-25 20.66 -25 21.32 -25 22 C-25.66 22 -26.32 22 -27 22 C-27 20.02 -27 18.04 -27 16 C-25.35 15.67 -23.7 15.34 -22 15 C-22 14.34 -22 13.68 -22 13 C-21.01 13 -20.02 13 -19 13 C-19 12.34 -19 11.68 -19 11 C-17.35 10.67 -15.7 10.34 -14 10 C-14 9.34 -14 8.68 -14 8 C-12.02 7.67 -10.04 7.34 -8 7 C-8 6.34 -8 5.68 -8 5 C-6.35 4.67 -4.7 4.34 -3 4 C-3 3.34 -3 2.68 -3 2 C-2.01 2 -1.02 2 0 2 C0 1.34 0 0.68 0 0 Z " fill="#171717" transform="translate(98,23)"/>
<path d="M0 0 C0.66 0.33 1.32 0.66 2 1 C1.67 1.66 1.34 2.32 1 3 C2.32 3 3.64 3 5 3 C5 14.22 5 25.44 5 37 C4.34 37 3.68 37 3 37 C3 26.44 3 15.88 3 5 C1.02 5.33 -0.96 5.66 -3 6 C-3 6.66 -3 7.32 -3 8 C-4.65 8.33 -6.3 8.66 -8 9 C-8 9.66 -8 10.32 -8 11 C-13.75 14 -13.75 14 -16 14 C-16 14.66 -16 15.32 -16 16 C-17.32 16.33 -18.64 16.66 -20 17 C-20 16.34 -20 15.68 -20 15 C-21.32 14.67 -22.64 14.34 -24 14 C-23.34 14 -22.68 14 -22 14 C-22 13.34 -22 12.68 -22 12 C-20.02 11.67 -18.04 11.34 -16 11 C-16 10.34 -16 9.68 -16 9 C-14.35 8.67 -12.7 8.34 -11 8 C-11 7.34 -11 6.68 -11 6 C-9.02 5.67 -7.04 5.34 -5 5 C-5 4.34 -5 3.68 -5 3 C-3.35 2.67 -1.7 2.34 0 2 C0 1.34 0 0.68 0 0 Z " fill="#181818" transform="translate(127,81)"/>
<path d="M0 0 C2.0625 0.4375 2.0625 0.4375 4 1 C4 1.66 4 2.32 4 3 C4.99 3 5.98 3 7 3 C7 16.53 7 30.06 7 44 C4.525 44.495 4.525 44.495 2 45 C2 44.01 2 43.02 2 42 C2.66 42 3.32 42 4 42 C4 30.78 4 19.56 4 8 C2.02 8.33 0.04 8.66 -2 9 C-1.125 1.125 -1.125 1.125 0 0 Z " fill="#010101" transform="translate(160,95)"/>
<path d="M0 0 C0.66 0.33 1.32 0.66 2 1 C1.67 1.66 1.34 2.32 1 3 C2.98 3 4.96 3 7 3 C6.01 3.66 5.02 4.32 4 5 C3.2575 5.515625 2.515 6.03125 1.75 6.5625 C-1.50929435 8.26622205 -4.3624917 8.64338154 -8 9 C-8 9.66 -8 10.32 -8 11 C-8.99 11 -9.98 11 -11 11 C-11 11.66 -11 12.32 -11 13 C-11.78375 13.0825 -12.5675 13.165 -13.375 13.25 C-14.24125 13.4975 -15.1075 13.745 -16 14 C-16.69937532 15.31647119 -17.36729133 16.65022151 -18 18 C-20.125 18.75 -20.125 18.75 -22 19 C-22 18.34 -22 17.68 -22 17 C-21.34 17 -20.68 17 -20 17 C-20 16.34 -20 15.68 -20 15 C-21.32 15.33 -22.64 15.66 -24 16 C-24 15.34 -24 14.68 -24 14 C-21.09451118 11.95830515 -19.59857954 11 -16 11 C-16 10.34 -16 9.68 -16 9 C-14.43880578 8.20576139 -12.87598036 7.41472877 -11.3125 6.625 C-10.00732422 5.96371094 -10.00732422 5.96371094 -8.67578125 5.2890625 C-6 4 -6 4 -3.23046875 2.9609375 C-0.83875619 2.21458745 -0.83875619 2.21458745 0 0 Z " fill="#323232" transform="translate(95,62)"/>
<path d="M0 0 C0.66 0 1.32 0 2 0 C2 10.56 2 21.12 2 32 C2.99 32 3.98 32 5 32 C5 31.34 5 30.68 5 30 C10.75 28.875 10.75 28.875 13 30 C12.3125 31.9375 12.3125 31.9375 11 34 C8.375 34.75 8.375 34.75 6 35 C6 35.66 6 36.32 6 37 C4.02 37.495 4.02 37.495 2 38 C2.66 36.68 3.32 35.36 4 34 C2.68 34 1.36 34 0 34 C0 22.78 0 11.56 0 0 Z " fill="#5D5D5D" transform="translate(101,100)"/>
<path d="M0 0 C0.66 0.99 1.32 1.98 2 3 C2.598125 2.67 3.19625 2.34 3.8125 2 C6 1 6 1 9 1 C9 11.56 9 22.12 9 33 C7.68 32.67 6.36 32.34 5 32 C5.33 31.34 5.66 30.68 6 30 C6.08510205 28.0406396 6.10717656 26.07837206 6.09765625 24.1171875 C6.09282227 22.36728516 6.09282227 22.36728516 6.08789062 20.58203125 C6.07951172 19.35871094 6.07113281 18.13539062 6.0625 16.875 C6.05798828 15.64394531 6.05347656 14.41289063 6.04882812 13.14453125 C6.0370133 10.09630608 6.02054028 7.04817686 6 4 C3.69 4.66 1.38 5.32 -1 6 C-1 5.34 -1 4.68 -1 4 C-2.65 4.33 -4.3 4.66 -6 5 C-2.25 1.125 -2.25 1.125 0 0 Z " fill="#4D4D4D" transform="translate(123,46)"/>
<path d="M0 0 C0.66 0 1.32 0 2 0 C1.67 1.65 1.34 3.3 1 5 C2.65 5 4.3 5 6 5 C6 16.22 6 27.44 6 39 C5.34 39 4.68 39 4 39 C4 28.44 4 17.88 4 7 C2.35 7.33 0.7 7.66 -1 8 C-1 7.34 -1 6.68 -1 6 C-1.99 5.67 -2.98 5.34 -4 5 C-3.01 4.34 -2.02 3.68 -1 3 C-0.67 2.01 -0.34 1.02 0 0 Z " fill="#5B5B5B" transform="translate(158,98)"/>
<path d="M0 0 C2.4375 0.8125 2.4375 0.8125 5 2 C5.33 2.99 5.66 3.98 6 5 C7.65 5.33 9.3 5.66 11 6 C11 6.66 11 7.32 11 8 C11.99 8 12.98 8 14 8 C14.268125 8.804375 14.53625 9.60875 14.8125 10.4375 C15.204375 11.283125 15.59625 12.12875 16 13 C16.99 13.33 17.98 13.66 19 14 C19 14.66 19 15.32 19 16 C16.525 15.505 16.525 15.505 14 15 C13.67 13.68 13.34 12.36 13 11 C10.69 10.67 8.38 10.34 6 10 C6 9.34 6 8.68 6 8 C4.68 7.67 3.36 7.34 2 7 C2 6.34 2 5.68 2 5 C0.68 5 -0.64 5 -2 5 C-1.67 4.34 -1.34 3.68 -1 3 C-0.01 3.33 0.98 3.66 2 4 C2 3.34 2 2.68 2 2 C1.34 2 0.68 2 0 2 C0 1.34 0 0.68 0 0 Z " fill="#545454" transform="translate(73,119)"/>
<path d="M0 0 C0 9.9 0 19.8 0 30 C-2.31 29.67 -4.62 29.34 -7 29 C-7 28.34 -7 27.68 -7 27 C-5.68 27.33 -4.36 27.66 -3 28 C-3 19.75 -3 11.5 -3 3 C-4.65 3.66 -6.3 4.32 -8 5 C-8 4.34 -8 3.68 -8 3 C-2.25 0 -2.25 0 0 0 Z " fill="#757575" transform="translate(67,84)"/>
<path d="M0 0 C2.475 0.99 2.475 0.99 5 2 C5.99 2.33 6.98 2.66 8 3 C7.67 3.66 7.34 4.32 7 5 C5.68 4.67 4.36 4.34 3 4 C3 12.91 3 21.82 3 31 C2.01 31.33 1.02 31.66 0 32 C0 21.44 0 10.88 0 0 Z " fill="#6D6D6D" transform="translate(133,84)"/>
<path d="M0 0 C1.32 0.33 2.64 0.66 4 1 C4 1.66 4 2.32 4 3 C6.97 3.495 6.97 3.495 10 4 C9.67 4.66 9.34 5.32 9 6 C8.01 5.67 7.02 5.34 6 5 C6.33 5.99 6.66 6.98 7 8 C6.01 8 5.02 8 4 8 C4 7.34 4 6.68 4 6 C3.34 6 2.68 6 2 6 C2 5.34 2 4.68 2 4 C-0.97 3.505 -0.97 3.505 -4 3 C-4 13.56 -4 24.12 -4 35 C-4.33 35 -4.66 35 -5 35 C-5 23.78 -5 12.56 -5 1 C-2.525 1.495 -2.525 1.495 0 2 C0 1.34 0 0.68 0 0 Z " fill="#272727" transform="translate(74,83)"/>
<path d="M0 0 C0.66 0 1.32 0 2 0 C2 11.22 2 22.44 2 34 C0.68 34 -0.64 34 -2 34 C-2 33.34 -2 32.68 -2 32 C-1.34 32 -0.68 32 0 32 C0 21.44 0 10.88 0 0 Z " fill="#696969" transform="translate(65,119)"/>
<path d="M0 0 C0 11.22 0 22.44 0 34 C-0.66 34 -1.32 34 -2 34 C-2 23.44 -2 12.88 -2 2 C-2.99 1.67 -3.98 1.34 -5 1 C-3 0 -3 0 0 0 Z " fill="#414141" transform="translate(132,84)"/>
<path d="M0 0 C0.99 0.33 1.98 0.66 3 1 C2 4 2 4 0.125 5.1875 C-2 6 -2 6 -5 6 C-5 6.66 -5 7.32 -5 8 C-6.65 8.33 -8.3 8.66 -10 9 C-10 9.66 -10 10.32 -10 11 C-11.65 11 -13.3 11 -15 11 C-14.67 10.01 -14.34 9.02 -14 8 C-12.02 7.67 -10.04 7.34 -8 7 C-8 6.01 -8 5.02 -8 4 C-5.09399739 2.74335022 -3.20395416 2 0 2 C0 1.34 0 0.68 0 0 Z " fill="#090909" transform="translate(127,119)"/>
<path d="M0 0 C0.99 0 1.98 0 3 0 C3 0.99 3 1.98 3 3 C2.34 3 1.68 3 1 3 C1 13.89 1 24.78 1 36 C0.67 36 0.34 36 0 36 C0 25.77 0 15.54 0 5 C-1.32 5.33 -2.64 5.66 -4 6 C-3.34 4.68 -2.68 3.36 -2 2 C-1.34 2 -0.68 2 0 2 C0 1.34 0 0.68 0 0 Z " fill="#010101" transform="translate(132,116)"/>
<path d="M0 0 C2.66666667 0.66666667 5.33333333 1.33333333 8 2 C8 2.99 8 3.98 8 5 C8.66 5 9.32 5 10 5 C10 5.66 10 6.32 10 7 C7.03 6.67 4.06 6.34 1 6 C0.67 4.02 0.34 2.04 0 0 Z " fill="#060606" transform="translate(95,59)"/>
<path d="M0 0 C-0.1875 1.8125 -0.1875 1.8125 -1 4 C-4.37287736 6.62334906 -6.75651873 7.36372697 -11 7 C-10.34 5.68 -9.68 4.36 -9 3 C-8.01 3 -7.02 3 -6 3 C-6 2.34 -6 1.68 -6 1 C-3 0 -3 0 0 0 Z " fill="#242424" transform="translate(122,50)"/>
<path d="M0 0 C-1 2 -2 4 -3 6 C-5.5625 6.625 -5.5625 6.625 -8 7 C-8.33 5.35 -8.66 3.7 -9 2 C-3.375 0 -3.375 0 0 0 Z " fill="#2D2D2D" transform="translate(157,104)"/>
<path d="M0 0 C0.66 0.33 1.32 0.66 2 1 C1.67 1.66 1.34 2.32 1 3 C2.98 3 4.96 3 7 3 C-0.5 8 -0.5 8 -3 8 C-3 7.34 -3 6.68 -3 6 C-2.34 6 -1.68 6 -1 6 C-1 5.34 -1 4.68 -1 4 C-2.65 4.33 -4.3 4.66 -6 5 C-5.67 4.34 -5.34 3.68 -5 3 C-3.66666667 2.66666667 -2.33333333 2.33333333 -1 2 C-0.67 1.34 -0.34 0.68 0 0 Z " fill="#646464" transform="translate(95,62)"/>
<path d="M0 0 C0 0.66 0 1.32 0 2 C-0.99 2 -1.98 2 -3 2 C-3 3.32 -3 4.64 -3 6 C-3 6.66 -3 7.32 -3 8 C-4.65 8.33 -6.3 8.66 -8 9 C-8.66 7.35 -9.32 5.7 -10 4 C-8.02 3.67 -6.04 3.34 -4 3 C-4 2.34 -4 1.68 -4 1 C-2 0 -2 0 0 0 Z " fill="#4C4C4C" transform="translate(116,51)"/>
<path d="M0 0 C0.33 1.32 0.66 2.64 1 4 C1.78375 4.0825 2.5675 4.165 3.375 4.25 C6 5 6 5 7.3125 7.0625 C7.539375 7.701875 7.76625 8.34125 8 9 C1.125 8.125 1.125 8.125 0 7 C-0.04092937 4.66702567 -0.04241723 2.33294775 0 0 Z " fill="#181818" transform="translate(40,98)"/>
<path d="M0 0 C0 0.66 0 1.32 0 2 C-0.66 2 -1.32 2 -2 2 C-2 2.66 -2 3.32 -2 4 C-1.01 3.67 -0.02 3.34 1 3 C0.25 4.9375 0.25 4.9375 -1 7 C-3.125 7.75 -3.125 7.75 -5 8 C-5 7.34 -5 6.68 -5 6 C-4.34 6 -3.68 6 -3 6 C-3 5.34 -3 4.68 -3 4 C-4.32 4.33 -5.64 4.66 -7 5 C-7 4.34 -7 3.68 -7 3 C-2.61538462 0 -2.61538462 0 0 0 Z " fill="#666666" transform="translate(78,73)"/>
<path d="M0 0 C0.33 0.99 0.66 1.98 1 3 C-6.50769231 3.36923077 -6.50769231 3.36923077 -9 1.5 C-9.33 1.005 -9.66 0.51 -10 0 C-6.30581799 -1.231394 -3.7943739 -0.64432764 0 0 Z " fill="#3E3E3E" transform="translate(124,73)"/>
<path d="M0 0 C0.99 0.33 1.98 0.66 3 1 C2.67 1.99 2.34 2.98 2 4 C-0.8125 5.3125 -0.8125 5.3125 -4 6 C-6.375 5.125 -6.375 5.125 -8 4 C-5.09399739 2.74335022 -3.20395416 2 0 2 C0 1.34 0 0.68 0 0 Z " fill="#222222" transform="translate(127,119)"/>
<path d="M0 0 C2.475 0.99 2.475 0.99 5 2 C5 2.99 5 3.98 5 5 C4.34 4.67 3.68 4.34 3 4 C3 4.66 3 5.32 3 6 C3.66 6 4.32 6 5 6 C5 6.66 5 7.32 5 8 C4.01 7.67 3.02 7.34 2 7 C2 6.34 2 5.68 2 5 C0.68 5 -0.64 5 -2 5 C-1.67 4.34 -1.34 3.68 -1 3 C-0.01 3.33 0.98 3.66 2 4 C2 3.34 2 2.68 2 2 C1.34 2 0.68 2 0 2 C0 1.34 0 0.68 0 0 Z " fill="#696969" transform="translate(73,119)"/>
<path d="M0 0 C0.33 1.32 0.66 2.64 1 4 C0.34 4 -0.32 4 -1 4 C-1 4.66 -1 5.32 -1 6 C-1.66 6 -2.32 6 -3 6 C-3.33 6.66 -3.66 7.32 -4 8 C-4 7.01 -4 6.02 -4 5 C-5.32 4.67 -6.64 4.34 -8 4 C-6.02 3.67 -4.04 3.34 -2 3 C-2 2.34 -2 1.68 -2 1 C-1.34 0.67 -0.68 0.34 0 0 Z " fill="#1D1D1D" transform="translate(107,56)"/>
<path d="M0 0 C0 0.66 0 1.32 0 2 C-2.64 2.66 -5.28 3.32 -8 4 C-8 2.68 -8 1.36 -8 0 C-4.94736336 -0.98120464 -3.05263664 -0.98120464 0 0 Z " fill="#262626" transform="translate(114,130)"/>
<path d="M0 0 C2.64 0.66 5.28 1.32 8 2 C8 2.99 8 3.98 8 5 C5.03 4.505 5.03 4.505 2 4 C2 3.34 2 2.68 2 2 C1.34 2 0.68 2 0 2 C0 1.34 0 0.68 0 0 Z " fill="#111111" transform="translate(76,123)"/>
<path d="M0 0 C0.66 0.33 1.32 0.66 2 1 C2.625 3.0625 2.625 3.0625 3 5 C1.68 5.33 0.36 5.66 -1 6 C-1 5.34 -1 4.68 -1 4 C-2.32 3.67 -3.64 3.34 -5 3 C-4.34 3 -3.68 3 -3 3 C-3 2.34 -3 1.68 -3 1 C-2.01 0.67 -1.02 0.34 0 0 Z " fill="#3B3B3B" transform="translate(108,92)"/>
<path d="M0 0 C0 0.66 0 1.32 0 2 C-1.65 1.67 -3.3 1.34 -5 1 C-5.33 1.66 -5.66 2.32 -6 3 C-7.32 2.67 -8.64 2.34 -10 2 C-10 1.34 -10 0.68 -10 0 C-6.30581799 -1.231394 -3.7943739 -0.64432764 0 0 Z " fill="#303030" transform="translate(67,114)"/>
<path d="M0 0 C-0.33 1.65 -0.66 3.3 -1 5 C-2.32 5 -3.64 5 -5 5 C-5.33 4.01 -5.66 3.02 -6 2 C-3 0 -3 0 0 0 Z " fill="#1B1B1B" transform="translate(149,108)"/>
<path d="M0 0 C-0.33 0.99 -0.66 1.98 -1 3 C-3.3431213 2.74438677 -5.67843403 2.40729228 -8 2 C-8.33 1.34 -8.66 0.68 -9 0 C-5.67465243 -1.10844919 -3.37817425 -0.84454356 0 0 Z " fill="#2C2C2C" transform="translate(52,106)"/>
<path d="M0 0 C2.64 0.66 5.28 1.32 8 2 C7.67 2.99 7.34 3.98 7 5 C5.35 4.67 3.7 4.34 2 4 C2 3.34 2 2.68 2 2 C1.34 2 0.68 2 0 2 C0 1.34 0 0.68 0 0 Z " fill="#121212" transform="translate(111,69)"/>
<path d="M0 0 C0.66 1.32 1.32 2.64 2 4 C1.01 4.66 0.02 5.32 -1 6 C-1 5.34 -1 4.68 -1 4 C-2.65 4.33 -4.3 4.66 -6 5 C-2.25 1.125 -2.25 1.125 0 0 Z " fill="#454545" transform="translate(123,46)"/>
<path d="M0 0 C-0.33 1.32 -0.66 2.64 -1 4 C-2.65 4 -4.3 4 -6 4 C-6 3.01 -6 2.02 -6 1 C-3 0 -3 0 0 0 Z " fill="#040404" transform="translate(90,30)"/>
<path d="M0 0 C2.97 0.495 2.97 0.495 6 1 C6 1.99 6 2.98 6 4 C4.35 4 2.7 4 1 4 C0.67 2.68 0.34 1.36 0 0 Z " fill="#0B0B0B" transform="translate(80,88)"/>
<path d="M0 0 C0.66 0 1.32 0 2 0 C1.67 2.64 1.34 5.28 1 8 C0.34 8 -0.32 8 -1 8 C-1 7.34 -1 6.68 -1 6 C-1.99 5.67 -2.98 5.34 -4 5 C-3.01 4.34 -2.02 3.68 -1 3 C-0.67 2.01 -0.34 1.02 0 0 Z " fill="#494949" transform="translate(158,98)"/>
<path d="M0 0 C1.125 3.75 1.125 3.75 0 6 C-2.0625 6.625 -2.0625 6.625 -4 7 C-3.43628586 3.73045798 -2.50037734 2.17424117 0 0 Z " fill="#282828" transform="translate(113,89)"/>
<path d="M0 0 C0.99 0.33 1.98 0.66 3 1 C3 2.65 3 4.3 3 6 C1.35 5.67 -0.3 5.34 -2 5 C-2 4.34 -2 3.68 -2 3 C-1.34 3 -0.68 3 0 3 C0 2.01 0 1.02 0 0 Z " fill="#393939" transform="translate(86,89)"/>
<path d="M0 0 C0 0.66 0 1.32 0 2 C-0.66 2 -1.32 2 -2 2 C-2 2.66 -2 3.32 -2 4 C-3.65 4.33 -5.3 4.66 -7 5 C-7 4.34 -7 3.68 -7 3 C-6.34 3 -5.68 3 -5 3 C-5 2.34 -5 1.68 -5 1 C-2 0 -2 0 0 0 Z " fill="#020202" transform="translate(83,72)"/>
<path d="M0 0 C0.99 0.495 0.99 0.495 2 1 C1.34 1.66 0.68 2.32 0 3 C0 2.01 0 1.02 0 0 Z M-3 3 C-0.525 3.495 -0.525 3.495 2 4 C1.67 4.66 1.34 5.32 1 6 C-1.0625 6.625 -1.0625 6.625 -3 7 C-3 5.68 -3 4.36 -3 3 Z " fill="#161616" transform="translate(127,43)"/>
</svg>
